<?xml version="1.0" encoding="UTF-8" standalone="no"?>
<svg width="25px" height="25px" viewBox="0 0 25 25" version="1.1" xmlns="http://www.w3.org/2000/svg" xmlns:xlink="http://www.w3.org/1999/xlink">
    <!-- Generator: Sketch 42 (36781) - http://www.bohemiancoding.com/sketch -->
    <title>Artboard 2</title>
    <desc>Created with Sketch.</desc>
    <defs></defs>
    <g id="localize" stroke="none" stroke-width="1" fill="none" fill-rule="evenodd">
        <g id="Artboard-2" fill="#484A7A">
            <g id="Group">
                <path d="M8.0155746,3.95161311 L6.89404651,3.95161311 C5.25362979,3.95161311 3.92473077,5.28087497 3.92473077,6.92060257 L3.92473077,15.6946407 C4.99240034,16.3476012 6.17525625,16.6521756 7.12022556,16.7921721 C6.98781349,16.5264369 6.91334557,16.2275746 6.91334557,15.9127105 L6.91334557,8.92413863 C6.91334557,8.92201496 6.91334894,8.91989206 6.91335567,8.91776994 C6.91298393,8.80198053 6.91698469,6.19159591 8.0155746,3.95161311 Z" id="Combined-Shape"></path>
                <path d="M16.4761307,-0.423244477 L15.3546026,-0.423244477 C13.7141859,-0.423244477 12.3852869,0.906017383 12.3852869,2.54574498 L12.3852869,11.3197831 C13.4529565,11.9727436 14.6358124,12.277318 15.5807817,12.4173145 C15.4483696,12.1515793 15.3739017,11.852717 15.3739017,11.537853 L15.3739017,4.54928105 C15.3739017,4.54715737 15.3739051,4.54503447 15.3739118,4.54291236 C15.3735401,4.42712294 15.3775408,1.81673832 16.4761307,-0.423244477 Z" id="Combined-Shape" transform="translate(14.430709, 5.997035) rotate(90.000000) translate(-14.430709, -5.997035) "></path>
                <path d="M20.7843918,8.01042932 L19.6628637,8.01042932 C18.022447,8.01042932 16.693548,9.33969118 16.693548,10.9794188 L16.693548,19.7534569 C17.7612175,20.4064174 18.9440735,20.7109918 19.8890428,20.8509883 C19.7566307,20.5852531 19.6821628,20.2863908 19.6821628,19.9715268 L19.6821628,12.9829548 C19.6821628,12.9808312 19.6821661,12.9787083 19.6821729,12.9765862 C19.6818011,12.8607967 19.6858019,10.2504121 20.7843918,8.01042932 Z" id="Combined-Shape" transform="translate(18.738970, 14.430709) rotate(180.000000) translate(-18.738970, -14.430709) "></path>
                <path d="M12.3366696,12.3186904 L11.2151415,12.3186904 C9.57472475,12.3186904 8.24582574,13.6479523 8.24582574,15.2876799 L8.24582574,24.061718 C9.31349531,24.7146785 10.4963512,25.0192529 11.4413205,25.1592494 C11.3089085,24.8935141 11.2344405,24.5946519 11.2344405,24.2797878 L11.2344405,17.2912159 C11.2344405,17.2890922 11.2344439,17.2869693 11.2344506,17.2848472 C11.2340789,17.1690578 11.2380797,14.5586732 12.3366696,12.3186904 Z" id="Combined-Shape" transform="translate(10.291248, 18.738970) rotate(270.000000) translate(-10.291248, -18.738970) "></path>
                <path d="M13.6865108,3.55271368e-15 L5.95520642,3.55271368e-15 C2.67663896,3.55271368e-15 0.01052271,2.65574224 3.10714388e-05,5.93577612 L0.00921378206,5.93549848 C0.00921378206,5.93549848 0.256269266,11.6236565 2.47976862,14.3440799 C2.63364322,14.5323436 2.79698333,14.7063942 2.96774194,14.8672975 L2.96774194,6.93085935 C2.96774194,4.74209004 4.73599566,2.96774194 6.93085935,2.96774194 L8.60317233,2.96774194 C8.886987,2.56775808 9.21878072,2.19859576 9.60666219,1.88156636 C10.6238063,1.0502181 12.1607087,0.439212797 13.6865108,3.27515792e-15 Z" id="Combined-Shape"></path>
                <path d="M24.1424802,-0.590397515 L16.4111758,-0.590397515 C13.1326083,-0.590397515 10.4664921,2.06534473 10.4560005,5.34537861 L10.4651832,5.34510096 C10.4651832,5.34510096 10.7122386,11.033259 12.935738,13.7536824 C13.0896126,13.941946 13.2529527,14.1159967 13.4237113,14.2769 L13.4237113,6.34046183 C13.4237113,4.15169252 15.191965,2.37734442 17.3868287,2.37734442 L19.0591417,2.37734442 C19.3429564,1.97736057 19.6747501,1.60819825 20.0626316,1.29116885 C21.0797757,0.459820587 22.6166781,-0.151184718 24.1424802,-0.590397515 Z" id="Combined-Shape" transform="translate(17.299240, 6.843251) rotate(90.000000) translate(-17.299240, -6.843251) "></path>
                <path d="M24.7348665,9.8655916 L17.003562,9.8655916 C13.7249946,9.8655916 11.0588783,12.5213338 11.0483867,15.8013677 L11.0575694,15.8010901 C11.0575694,15.8010901 11.3046249,21.4892481 13.5281242,24.2096715 C13.6819988,24.3979352 13.8453389,24.5719858 14.0160976,24.7328891 L14.0160976,16.796451 C14.0160976,14.6076816 15.7843513,12.8333335 17.979215,12.8333335 L19.6515279,12.8333335 C19.9353426,12.4333497 20.2671363,12.0641874 20.6550178,11.747158 C21.6721619,10.9158097 23.2090643,10.3048044 24.7348665,9.8655916 Z" id="Combined-Shape" transform="translate(17.891627, 17.299240) rotate(180.000000) translate(-17.891627, -17.299240) "></path>
                <path d="M14.3037704,10.4579778 L6.57246602,10.4579778 C3.29389856,10.4579778 0.627782311,13.1137201 0.617290673,16.393754 L0.626473383,16.3934763 C0.626473383,16.3934763 0.873528867,22.0816344 3.09702822,24.8020578 C3.25090282,24.9903214 3.41424293,25.1643721 3.58500154,25.3252753 L3.58500154,17.3888372 C3.58500154,15.2000679 5.35325526,13.4257198 7.54811895,13.4257198 L9.22043193,13.4257198 C9.50424661,13.0257359 9.83604032,12.6565736 10.2239218,12.3395442 C11.2410659,11.5081959 12.7779683,10.8971906 14.3037704,10.4579778 Z" id="Combined-Shape" transform="translate(7.460531, 17.891627) rotate(270.000000) translate(-7.460531, -17.891627) "></path>
            </g>
        </g>
    </g>
</svg>
