<?xml version="1.0" encoding="UTF-8" standalone="no"?>
<svg viewBox="0 0 246 246" version="1.1" xmlns="http://www.w3.org/2000/svg" xmlns:xlink="http://www.w3.org/1999/xlink" xmlns:sketch="http://www.bohemiancoding.com/sketch/ns">
    <!-- Generator: Sketch 3.2.2 (9983) - http://www.bohemiancoding.com/sketch -->
    <title>Rectangle-88-Copy</title>
    <desc>Created with Sketch.</desc>
    <defs></defs>
    <g id="Page-1" stroke="none" stroke-width="1" fill="none" fill-rule="evenodd" sketch:type="MSPage">
        <g id="Artboard-1" sketch:type="MSArtboardGroup" transform="translate(-36.000000, -15.000000)" fill="#FFFFFF">
            <g id="256-white" sketch:type="MSLayerGroup" transform="translate(36.000000, 15.000000)">
                <g id="Page-1" sketch:type="MSShapeGroup">
                    <g id="Artboard-6">
                        <path d="M0,102.002386 L0,193.075749 C0,222.305006 23.6991658,246 52.9242514,246 L70.8459671,246 C102.322941,244.369886 130.337596,232.793412 149.966809,216 L70.7439365,216 C48.7962866,216 31,198.206034 31,176.256064 L31,158.418927 C17.0401141,144.055268 6.0369385,124.498919 0,102.002386 L0,102.002386 Z M0,73.0204613 L0,52.9242514 C0,23.6991658 23.6949945,0 52.9242514,0 L143.983189,0 C121.362158,5.9933744 101.688545,17.0041989 87.2405755,31 L70.7439365,31 C48.7939665,31 31,48.7962866 31,70.7439365 L31,151.389884 C13.9712251,132.125023 2.05938121,104.358721 0,73.0204613 L0,73.0204613 Z M37.24,164.32152 L37.24,175.624543 C37.24,194.630843 52.6497786,210.04 71.6554567,210.04 L156.365727,210.04 C166.477501,199.768741 173.651056,187.962134 176.96012,175.510007 C172.126487,180.731149 165.213854,184 157.537874,184 L87.4621257,184 C86.9309898,184 86.4035042,183.984347 85.8801054,183.953478 L85.8801054,183.975937 C68.3821398,183.975937 51.5588784,176.74083 37.2399802,164.321503 L37.24,164.32152 Z M37.24,157.851957 L37.24,71.6554567 C37.24,52.6497786 52.6491572,37.24 71.6554567,37.24 L81.3185785,37.24 L81.3185961,37.2399798 C69.9722088,50.2786577 62.9281243,65.4022106 61.739403,81.2251065 C61.2560865,83.22514 61,85.3137718 61,87.4621257 L61,157.537874 C61,165.134304 64.2014489,171.983127 69.3282963,176.809172 C57.8199556,173.542415 46.8876158,166.977427 37.2399818,157.85194 L37.24,157.851957 Z M101.417783,246 L193.075749,246 C222.305006,246 246,222.300834 246,193.075749 L246,172.137361 C243.980873,141.416801 232.493858,114.128882 216,94.9173588 L216,176.256064 C216,198.203713 198.206034,216 176.256064,216 L157.113523,216 C142.768571,229.520083 123.497167,240.150067 101.417783,246 L101.417783,246 L101.417783,246 Z M162.948376,210.04 L175.624543,210.04 C194.630843,210.04 210.04,194.630221 210.04,175.624543 L210.04,88.5405039 L210.040024,88.5405276 C199.76063,78.4553338 187.950477,71.3097915 175.498409,68.0291497 C180.726308,72.8632798 184,79.7804642 184,87.4621257 L184,157.537874 C184,158.530623 183.945317,159.510619 183.838798,160.475012 C183.704906,178.37546 176.007982,195.551455 162.948376,210.04 L162.948376,210.04 L162.948376,210.04 Z M246,143.156648 L246,52.9242514 C246,23.6949945 222.300834,0 193.075749,0 L174.556643,0 C142.457898,1.66186904 113.959463,13.6669314 94.2819283,31 L176.256064,31 C198.203713,31 216,48.7939665 216,70.7439365 L216,87.7835391 C229.485161,102.044395 240.107915,121.200151 246,143.156648 L246,143.156648 L246,143.156648 Z M210.04,81.967794 L210.04,71.6554567 C210.04,52.6491572 194.630221,37.24 175.624543,37.24 L87.7975806,37.24 C78.8639713,46.6524599 72.3700224,57.2932892 69.003118,68.5021472 C73.7705453,63.8598344 80.2824192,61 87.4621257,61 L157.537874,61 C158.605143,61 159.657672,61.0632007 160.691921,61.1860643 C178.508065,61.3465411 195.60284,68.9972384 210.04,81.967794 L210.04,81.967794 L210.04,81.967794 Z" id="Rectangle-88-Copy"></path>
                    </g>
                </g>
            </g>
        </g>
    </g>
</svg>