<svg class="lds-spinner" width="28px"  height="28px"  xmlns="http://www.w3.org/2000/svg" xmlns:xlink="http://www.w3.org/1999/xlink" viewBox="0 0 100 100" preserveAspectRatio="xMidYMid"><g transform="rotate(0 50 50)">
  <rect x="47" y="24" rx="4.7" ry="2.4" width="6" height="12" fill="#ffffff">
    <animate attributeName="opacity" values="1;0" times="0;1" dur="1s" begin="-0.9833333333333333s" repeatCount="indefinite"></animate>
  </rect>
</g><g transform="rotate(6 50 50)">
  <rect x="47" y="24" rx="4.7" ry="2.4" width="6" height="12" fill="#ffffff">
    <animate attributeName="opacity" values="1;0" times="0;1" dur="1s" begin="-0.9666666666666667s" repeatCount="indefinite"></animate>
  </rect>
</g><g transform="rotate(12 50 50)">
  <rect x="47" y="24" rx="4.7" ry="2.4" width="6" height="12" fill="#ffffff">
    <animate attributeName="opacity" values="1;0" times="0;1" dur="1s" begin="-0.95s" repeatCount="indefinite"></animate>
  </rect>
</g><g transform="rotate(18 50 50)">
  <rect x="47" y="24" rx="4.7" ry="2.4" width="6" height="12" fill="#ffffff">
    <animate attributeName="opacity" values="1;0" times="0;1" dur="1s" begin="-0.9333333333333333s" repeatCount="indefinite"></animate>
  </rect>
</g><g transform="rotate(24 50 50)">
  <rect x="47" y="24" rx="4.7" ry="2.4" width="6" height="12" fill="#ffffff">
    <animate attributeName="opacity" values="1;0" times="0;1" dur="1s" begin="-0.9166666666666666s" repeatCount="indefinite"></animate>
  </rect>
</g><g transform="rotate(30 50 50)">
  <rect x="47" y="24" rx="4.7" ry="2.4" width="6" height="12" fill="#ffffff">
    <animate attributeName="opacity" values="1;0" times="0;1" dur="1s" begin="-0.9s" repeatCount="indefinite"></animate>
  </rect>
</g><g transform="rotate(36 50 50)">
  <rect x="47" y="24" rx="4.7" ry="2.4" width="6" height="12" fill="#ffffff">
    <animate attributeName="opacity" values="1;0" times="0;1" dur="1s" begin="-0.8833333333333333s" repeatCount="indefinite"></animate>
  </rect>
</g><g transform="rotate(42 50 50)">
  <rect x="47" y="24" rx="4.7" ry="2.4" width="6" height="12" fill="#ffffff">
    <animate attributeName="opacity" values="1;0" times="0;1" dur="1s" begin="-0.8666666666666667s" repeatCount="indefinite"></animate>
  </rect>
</g><g transform="rotate(48 50 50)">
  <rect x="47" y="24" rx="4.7" ry="2.4" width="6" height="12" fill="#ffffff">
    <animate attributeName="opacity" values="1;0" times="0;1" dur="1s" begin="-0.85s" repeatCount="indefinite"></animate>
  </rect>
</g><g transform="rotate(54 50 50)">
  <rect x="47" y="24" rx="4.7" ry="2.4" width="6" height="12" fill="#ffffff">
    <animate attributeName="opacity" values="1;0" times="0;1" dur="1s" begin="-0.8333333333333334s" repeatCount="indefinite"></animate>
  </rect>
</g><g transform="rotate(60 50 50)">
  <rect x="47" y="24" rx="4.7" ry="2.4" width="6" height="12" fill="#ffffff">
    <animate attributeName="opacity" values="1;0" times="0;1" dur="1s" begin="-0.8166666666666667s" repeatCount="indefinite"></animate>
  </rect>
</g><g transform="rotate(66 50 50)">
  <rect x="47" y="24" rx="4.7" ry="2.4" width="6" height="12" fill="#ffffff">
    <animate attributeName="opacity" values="1;0" times="0;1" dur="1s" begin="-0.8s" repeatCount="indefinite"></animate>
  </rect>
</g><g transform="rotate(72 50 50)">
  <rect x="47" y="24" rx="4.7" ry="2.4" width="6" height="12" fill="#ffffff">
    <animate attributeName="opacity" values="1;0" times="0;1" dur="1s" begin="-0.7833333333333333s" repeatCount="indefinite"></animate>
  </rect>
</g><g transform="rotate(78 50 50)">
  <rect x="47" y="24" rx="4.7" ry="2.4" width="6" height="12" fill="#ffffff">
    <animate attributeName="opacity" values="1;0" times="0;1" dur="1s" begin="-0.7666666666666667s" repeatCount="indefinite"></animate>
  </rect>
</g><g transform="rotate(84 50 50)">
  <rect x="47" y="24" rx="4.7" ry="2.4" width="6" height="12" fill="#ffffff">
    <animate attributeName="opacity" values="1;0" times="0;1" dur="1s" begin="-0.75s" repeatCount="indefinite"></animate>
  </rect>
</g><g transform="rotate(90 50 50)">
  <rect x="47" y="24" rx="4.7" ry="2.4" width="6" height="12" fill="#ffffff">
    <animate attributeName="opacity" values="1;0" times="0;1" dur="1s" begin="-0.7333333333333333s" repeatCount="indefinite"></animate>
  </rect>
</g><g transform="rotate(96 50 50)">
  <rect x="47" y="24" rx="4.7" ry="2.4" width="6" height="12" fill="#ffffff">
    <animate attributeName="opacity" values="1;0" times="0;1" dur="1s" begin="-0.7166666666666667s" repeatCount="indefinite"></animate>
  </rect>
</g><g transform="rotate(102 50 50)">
  <rect x="47" y="24" rx="4.7" ry="2.4" width="6" height="12" fill="#ffffff">
    <animate attributeName="opacity" values="1;0" times="0;1" dur="1s" begin="-0.7s" repeatCount="indefinite"></animate>
  </rect>
</g><g transform="rotate(108 50 50)">
  <rect x="47" y="24" rx="4.7" ry="2.4" width="6" height="12" fill="#ffffff">
    <animate attributeName="opacity" values="1;0" times="0;1" dur="1s" begin="-0.6833333333333333s" repeatCount="indefinite"></animate>
  </rect>
</g><g transform="rotate(114 50 50)">
  <rect x="47" y="24" rx="4.7" ry="2.4" width="6" height="12" fill="#ffffff">
    <animate attributeName="opacity" values="1;0" times="0;1" dur="1s" begin="-0.6666666666666666s" repeatCount="indefinite"></animate>
  </rect>
</g><g transform="rotate(120 50 50)">
  <rect x="47" y="24" rx="4.7" ry="2.4" width="6" height="12" fill="#ffffff">
    <animate attributeName="opacity" values="1;0" times="0;1" dur="1s" begin="-0.65s" repeatCount="indefinite"></animate>
  </rect>
</g><g transform="rotate(126 50 50)">
  <rect x="47" y="24" rx="4.7" ry="2.4" width="6" height="12" fill="#ffffff">
    <animate attributeName="opacity" values="1;0" times="0;1" dur="1s" begin="-0.6333333333333333s" repeatCount="indefinite"></animate>
  </rect>
</g><g transform="rotate(132 50 50)">
  <rect x="47" y="24" rx="4.7" ry="2.4" width="6" height="12" fill="#ffffff">
    <animate attributeName="opacity" values="1;0" times="0;1" dur="1s" begin="-0.6166666666666667s" repeatCount="indefinite"></animate>
  </rect>
</g><g transform="rotate(138 50 50)">
  <rect x="47" y="24" rx="4.7" ry="2.4" width="6" height="12" fill="#ffffff">
    <animate attributeName="opacity" values="1;0" times="0;1" dur="1s" begin="-0.6s" repeatCount="indefinite"></animate>
  </rect>
</g><g transform="rotate(144 50 50)">
  <rect x="47" y="24" rx="4.7" ry="2.4" width="6" height="12" fill="#ffffff">
    <animate attributeName="opacity" values="1;0" times="0;1" dur="1s" begin="-0.5833333333333334s" repeatCount="indefinite"></animate>
  </rect>
</g><g transform="rotate(150 50 50)">
  <rect x="47" y="24" rx="4.7" ry="2.4" width="6" height="12" fill="#ffffff">
    <animate attributeName="opacity" values="1;0" times="0;1" dur="1s" begin="-0.5666666666666667s" repeatCount="indefinite"></animate>
  </rect>
</g><g transform="rotate(156 50 50)">
  <rect x="47" y="24" rx="4.7" ry="2.4" width="6" height="12" fill="#ffffff">
    <animate attributeName="opacity" values="1;0" times="0;1" dur="1s" begin="-0.55s" repeatCount="indefinite"></animate>
  </rect>
</g><g transform="rotate(162 50 50)">
  <rect x="47" y="24" rx="4.7" ry="2.4" width="6" height="12" fill="#ffffff">
    <animate attributeName="opacity" values="1;0" times="0;1" dur="1s" begin="-0.5333333333333333s" repeatCount="indefinite"></animate>
  </rect>
</g><g transform="rotate(168 50 50)">
  <rect x="47" y="24" rx="4.7" ry="2.4" width="6" height="12" fill="#ffffff">
    <animate attributeName="opacity" values="1;0" times="0;1" dur="1s" begin="-0.5166666666666667s" repeatCount="indefinite"></animate>
  </rect>
</g><g transform="rotate(174 50 50)">
  <rect x="47" y="24" rx="4.7" ry="2.4" width="6" height="12" fill="#ffffff">
    <animate attributeName="opacity" values="1;0" times="0;1" dur="1s" begin="-0.5s" repeatCount="indefinite"></animate>
  </rect>
</g><g transform="rotate(180 50 50)">
  <rect x="47" y="24" rx="4.7" ry="2.4" width="6" height="12" fill="#ffffff">
    <animate attributeName="opacity" values="1;0" times="0;1" dur="1s" begin="-0.48333333333333334s" repeatCount="indefinite"></animate>
  </rect>
</g><g transform="rotate(186 50 50)">
  <rect x="47" y="24" rx="4.7" ry="2.4" width="6" height="12" fill="#ffffff">
    <animate attributeName="opacity" values="1;0" times="0;1" dur="1s" begin="-0.4666666666666667s" repeatCount="indefinite"></animate>
  </rect>
</g><g transform="rotate(192 50 50)">
  <rect x="47" y="24" rx="4.7" ry="2.4" width="6" height="12" fill="#ffffff">
    <animate attributeName="opacity" values="1;0" times="0;1" dur="1s" begin="-0.45s" repeatCount="indefinite"></animate>
  </rect>
</g><g transform="rotate(198 50 50)">
  <rect x="47" y="24" rx="4.7" ry="2.4" width="6" height="12" fill="#ffffff">
    <animate attributeName="opacity" values="1;0" times="0;1" dur="1s" begin="-0.43333333333333335s" repeatCount="indefinite"></animate>
  </rect>
</g><g transform="rotate(204 50 50)">
  <rect x="47" y="24" rx="4.7" ry="2.4" width="6" height="12" fill="#ffffff">
    <animate attributeName="opacity" values="1;0" times="0;1" dur="1s" begin="-0.4166666666666667s" repeatCount="indefinite"></animate>
  </rect>
</g><g transform="rotate(210 50 50)">
  <rect x="47" y="24" rx="4.7" ry="2.4" width="6" height="12" fill="#ffffff">
    <animate attributeName="opacity" values="1;0" times="0;1" dur="1s" begin="-0.4s" repeatCount="indefinite"></animate>
  </rect>
</g><g transform="rotate(216 50 50)">
  <rect x="47" y="24" rx="4.7" ry="2.4" width="6" height="12" fill="#ffffff">
    <animate attributeName="opacity" values="1;0" times="0;1" dur="1s" begin="-0.38333333333333336s" repeatCount="indefinite"></animate>
  </rect>
</g><g transform="rotate(222 50 50)">
  <rect x="47" y="24" rx="4.7" ry="2.4" width="6" height="12" fill="#ffffff">
    <animate attributeName="opacity" values="1;0" times="0;1" dur="1s" begin="-0.36666666666666664s" repeatCount="indefinite"></animate>
  </rect>
</g><g transform="rotate(228 50 50)">
  <rect x="47" y="24" rx="4.7" ry="2.4" width="6" height="12" fill="#ffffff">
    <animate attributeName="opacity" values="1;0" times="0;1" dur="1s" begin="-0.35s" repeatCount="indefinite"></animate>
  </rect>
</g><g transform="rotate(234 50 50)">
  <rect x="47" y="24" rx="4.7" ry="2.4" width="6" height="12" fill="#ffffff">
    <animate attributeName="opacity" values="1;0" times="0;1" dur="1s" begin="-0.3333333333333333s" repeatCount="indefinite"></animate>
  </rect>
</g><g transform="rotate(240 50 50)">
  <rect x="47" y="24" rx="4.7" ry="2.4" width="6" height="12" fill="#ffffff">
    <animate attributeName="opacity" values="1;0" times="0;1" dur="1s" begin="-0.31666666666666665s" repeatCount="indefinite"></animate>
  </rect>
</g><g transform="rotate(246 50 50)">
  <rect x="47" y="24" rx="4.7" ry="2.4" width="6" height="12" fill="#ffffff">
    <animate attributeName="opacity" values="1;0" times="0;1" dur="1s" begin="-0.3s" repeatCount="indefinite"></animate>
  </rect>
</g><g transform="rotate(252 50 50)">
  <rect x="47" y="24" rx="4.7" ry="2.4" width="6" height="12" fill="#ffffff">
    <animate attributeName="opacity" values="1;0" times="0;1" dur="1s" begin="-0.2833333333333333s" repeatCount="indefinite"></animate>
  </rect>
</g><g transform="rotate(258 50 50)">
  <rect x="47" y="24" rx="4.7" ry="2.4" width="6" height="12" fill="#ffffff">
    <animate attributeName="opacity" values="1;0" times="0;1" dur="1s" begin="-0.26666666666666666s" repeatCount="indefinite"></animate>
  </rect>
</g><g transform="rotate(264 50 50)">
  <rect x="47" y="24" rx="4.7" ry="2.4" width="6" height="12" fill="#ffffff">
    <animate attributeName="opacity" values="1;0" times="0;1" dur="1s" begin="-0.25s" repeatCount="indefinite"></animate>
  </rect>
</g><g transform="rotate(270 50 50)">
  <rect x="47" y="24" rx="4.7" ry="2.4" width="6" height="12" fill="#ffffff">
    <animate attributeName="opacity" values="1;0" times="0;1" dur="1s" begin="-0.23333333333333334s" repeatCount="indefinite"></animate>
  </rect>
</g><g transform="rotate(276 50 50)">
  <rect x="47" y="24" rx="4.7" ry="2.4" width="6" height="12" fill="#ffffff">
    <animate attributeName="opacity" values="1;0" times="0;1" dur="1s" begin="-0.21666666666666667s" repeatCount="indefinite"></animate>
  </rect>
</g><g transform="rotate(282 50 50)">
  <rect x="47" y="24" rx="4.7" ry="2.4" width="6" height="12" fill="#ffffff">
    <animate attributeName="opacity" values="1;0" times="0;1" dur="1s" begin="-0.2s" repeatCount="indefinite"></animate>
  </rect>
</g><g transform="rotate(288 50 50)">
  <rect x="47" y="24" rx="4.7" ry="2.4" width="6" height="12" fill="#ffffff">
    <animate attributeName="opacity" values="1;0" times="0;1" dur="1s" begin="-0.18333333333333332s" repeatCount="indefinite"></animate>
  </rect>
</g><g transform="rotate(294 50 50)">
  <rect x="47" y="24" rx="4.7" ry="2.4" width="6" height="12" fill="#ffffff">
    <animate attributeName="opacity" values="1;0" times="0;1" dur="1s" begin="-0.16666666666666666s" repeatCount="indefinite"></animate>
  </rect>
</g><g transform="rotate(300 50 50)">
  <rect x="47" y="24" rx="4.7" ry="2.4" width="6" height="12" fill="#ffffff">
    <animate attributeName="opacity" values="1;0" times="0;1" dur="1s" begin="-0.15s" repeatCount="indefinite"></animate>
  </rect>
</g><g transform="rotate(306 50 50)">
  <rect x="47" y="24" rx="4.7" ry="2.4" width="6" height="12" fill="#ffffff">
    <animate attributeName="opacity" values="1;0" times="0;1" dur="1s" begin="-0.13333333333333333s" repeatCount="indefinite"></animate>
  </rect>
</g><g transform="rotate(312 50 50)">
  <rect x="47" y="24" rx="4.7" ry="2.4" width="6" height="12" fill="#ffffff">
    <animate attributeName="opacity" values="1;0" times="0;1" dur="1s" begin="-0.11666666666666667s" repeatCount="indefinite"></animate>
  </rect>
</g><g transform="rotate(318 50 50)">
  <rect x="47" y="24" rx="4.7" ry="2.4" width="6" height="12" fill="#ffffff">
    <animate attributeName="opacity" values="1;0" times="0;1" dur="1s" begin="-0.1s" repeatCount="indefinite"></animate>
  </rect>
</g><g transform="rotate(324 50 50)">
  <rect x="47" y="24" rx="4.7" ry="2.4" width="6" height="12" fill="#ffffff">
    <animate attributeName="opacity" values="1;0" times="0;1" dur="1s" begin="-0.08333333333333333s" repeatCount="indefinite"></animate>
  </rect>
</g><g transform="rotate(330 50 50)">
  <rect x="47" y="24" rx="4.7" ry="2.4" width="6" height="12" fill="#ffffff">
    <animate attributeName="opacity" values="1;0" times="0;1" dur="1s" begin="-0.06666666666666667s" repeatCount="indefinite"></animate>
  </rect>
</g><g transform="rotate(336 50 50)">
  <rect x="47" y="24" rx="4.7" ry="2.4" width="6" height="12" fill="#ffffff">
    <animate attributeName="opacity" values="1;0" times="0;1" dur="1s" begin="-0.05s" repeatCount="indefinite"></animate>
  </rect>
</g><g transform="rotate(342 50 50)">
  <rect x="47" y="24" rx="4.7" ry="2.4" width="6" height="12" fill="#ffffff">
    <animate attributeName="opacity" values="1;0" times="0;1" dur="1s" begin="-0.03333333333333333s" repeatCount="indefinite"></animate>
  </rect>
</g><g transform="rotate(348 50 50)">
  <rect x="47" y="24" rx="4.7" ry="2.4" width="6" height="12" fill="#ffffff">
    <animate attributeName="opacity" values="1;0" times="0;1" dur="1s" begin="-0.016666666666666666s" repeatCount="indefinite"></animate>
  </rect>
</g><g transform="rotate(354 50 50)">
  <rect x="47" y="24" rx="4.7" ry="2.4" width="6" height="12" fill="#ffffff">
    <animate attributeName="opacity" values="1;0" times="0;1" dur="1s" begin="0s" repeatCount="indefinite"></animate>
  </rect>
</g></svg>