<?xml version="1.0" encoding="utf-8"?>
<!-- Generator: Adobe Illustrator 21.0.0, SVG Export Plug-In . SVG Version: 6.00 Build 0)  -->
<svg version="1.1" id="Team" xmlns="http://www.w3.org/2000/svg" xmlns:xlink="http://www.w3.org/1999/xlink" x="0px" y="0px"
	 viewBox="0 0 1440 905" style="enable-background:new 0 0 1440 905;" xml:space="preserve">
<style type="text/css">
	.st0{fill:none;enable-background:new;}
	.st1{fill:#F6F6F6;}
</style>
<path class="st0" d="M0,0"/>
<g id="Team_1_">
	<rect class="st1" width="1440" height="901"/>
	<g id="_x33_">
		<g>
			<defs>
				<path id="Member_07" d="M953.5,529l133.9-133.9L1221.3,529l-133.9,133.9L953.5,529z"/>
			</defs>
			<clipPath id="polygon-7">
				<use xlink:href="#Member_07" style="overflow:visible;"/>
			</clipPath>
			<g transform="matrix(1 0 0 1 -6.103516e-05 0)" style="clip-path:url(#polygon-7);">
				<image style="overflow:visible;" width="600" height="600" xlink:href="http://www.lovemarks.com/wp-content/uploads/profile-avatars/default-avatar-ginger-guy.png"  transform="matrix(0.4463 0 0 0.4463 953.5 395.1)">
				</image>
			</g>
		</g>
		<g>
			<defs>
				<path id="Member_08" d="M813.5,669l133.9-133.9L1081.3,669L947.4,802.9L813.5,669z"/>
			</defs>
			<clipPath id="polygon-8">
				<use xlink:href="#Member_08" style="overflow:visible;"/>
			</clipPath>
			<g style="clip-path:url(#polygon-8);">
				<image style="overflow:visible;" width="600" height="600" xlink:href="http://www.lovemarks.com/wp-content/uploads/profile-avatars/default-avatar-ginger-guy.png"  transform="matrix(0.4463 0 0 0.4463 813.5 535.1)">
				</image>
			</g>
		</g>
		<g>
			<defs>
				<path id="Member_05" d="M1094.4,388.2l133.9-133.9l133.9,133.9l-133.9,133.9L1094.4,388.2z"/>
			</defs>
			<clipPath id="polygon-5">
				<use xlink:href="#Member_05" style="overflow:visible;"/>
			</clipPath>
			<g transform="matrix(1 0 0 1 0 -1.525879e-05)" style="clip-path:url(#polygon-5);">
				<image style="overflow:visible;" width="600" height="600" xlink:href="http://www.lovemarks.com/wp-content/uploads/profile-avatars/default-avatar-ginger-guy.png"  transform="matrix(0.4463 0 0 0.4463 1094.4 254.1)">
				</image>
			</g>
		</g>
	</g>
	<g id="_x32_">
		<g>
			<defs>
				<path id="Member_06" d="M672.5,530.1l133.9-133.9l133.9,133.9L806.4,664L672.5,530.1z"/>
			</defs>
			<clipPath id="polygon-6">
				<use xlink:href="#Member_06" style="overflow:visible;"/>
			</clipPath>
			<g style="clip-path:url(#polygon-6);">
				<image style="overflow:visible;" width="600" height="600" xlink:href="http://www.lovemarks.com/wp-content/uploads/profile-avatars/default-avatar-ginger-guy.png"  transform="matrix(0.4463 0 0 0.4463 672.5 396.2)">
				</image>
			</g>
		</g>
		<g>
			<defs>
				<path id="Member_04" d="M812.5,389.2l133.9-133.9l133.9,133.9L946.4,523.1L812.5,389.2z"/>
			</defs>
			<clipPath id="polygon-4">
				<use xlink:href="#Member_04" style="overflow:visible;"/>
			</clipPath>
			<g transform="matrix(1 0 0 1 0 -1.525879e-05)" style="clip-path:url(#polygon-4);">
				<image style="overflow:visible;" width="600" height="600" xlink:href="http://www.lovemarks.com/wp-content/uploads/profile-avatars/default-avatar-ginger-guy.png"  transform="matrix(0.4463 0 0 0.4463 812.5 255.3)">
				</image>
			</g>
		</g>
		<g>
			<defs>
				<path id="Member_02" d="M952.5,248.4l133.9-133.9l133.9,133.9l-133.9,133.9L952.5,248.4z"/>
			</defs>
			<clipPath id="polygon-2">
				<use xlink:href="#Member_02" style="overflow:visible;"/>
			</clipPath>
			<g transform="matrix(1 0 0 1 -6.103516e-05 0)" style="clip-path:url(#polygon-2);">
				<image style="overflow:visible;" width="600" height="600" xlink:href="http://www.lovemarks.com/wp-content/uploads/profile-avatars/default-avatar-ginger-guy.png"  transform="matrix(0.4463 0 0 0.4463 952.5 114.5)">
				</image>
			</g>
		</g>
	</g>
	<g id="_x31_">
		<g>
			<defs>
				<path id="Member_03" d="M531.8,389.2l133.9-133.9l133.9,133.9L665.7,523.1L531.8,389.2z"/>
			</defs>
			<clipPath id="polygon-3">
				<use xlink:href="#Member_03" style="overflow:visible;"/>
			</clipPath>
			<g transform="matrix(1 0 0 1 0 -1.525879e-05)" style="clip-path:url(#polygon-3);">
				<image style="overflow:visible;" width="600" height="600" xlink:href="http://www.lovemarks.com/wp-content/uploads/profile-avatars/default-avatar-ginger-guy.png"  transform="matrix(0.4463 0 0 0.4463 531.8 255.3)">
				</image>
			</g>
		</g>
		<g>
			<defs>
				<path id="Member_01" d="M672.7,248.4l133.9-133.9l133.9,133.9L806.6,382.3L672.7,248.4z"/>
			</defs>
			<clipPath id="polygon-1">
				<use xlink:href="#Member_01" style="overflow:visible;"/>
			</clipPath>
			<g style="clip-path:url(#polygon-1);">
				<image style="overflow:visible;" width="600" height="600" xlink:href="http://www.lovemarks.com/wp-content/uploads/profile-avatars/default-avatar-ginger-guy.png"  transform="matrix(0.4463 0 0 0.4463 672.7 114.3)">
				</image>
			</g>
		</g>
	</g>
</g>
</svg>
