<?xml version="1.0" encoding="utf-8"?>
<!-- Generator: Adobe Illustrator 21.0.1, SVG Export Plug-In . SVG Version: 6.00 Build 0)  -->
<svg version="1.0" id="Layer_1" xmlns="http://www.w3.org/2000/svg" xmlns:xlink="http://www.w3.org/1999/xlink" x="0px" y="0px"
	 viewBox="0 0 1000 1000" style="enable-background:new 0 0 1000 1000;" xml:space="preserve">
<style type="text/css">
	.st0{fill:#414042;}
	.st1{fill:#E6E7E8;}
	.st2{fill:#808285;}
	.st3{fill:#58595B;}
</style>
<g>
	<g>
		<path class="st0" d="M713.4,870.3c0,36-29.5,65.5-65.5,65.5H358.3c-36,0-65.5-29.5-65.5-65.5V115.8c0-36,29.4-65.5,65.5-65.5H648
			c36,0,65.5,29.5,65.5,65.5L713.4,870.3L713.4,870.3z"/>
	</g>
	<rect x="313" y="171.2" class="st1" width="382" height="647.4"/>
	<path class="st2" d="M532.6,870.9c0,16.3-13.2,29.6-29.5,29.6s-29.5-13.2-29.5-29.6c0-16.3,13.2-29.5,29.5-29.5
		C519.4,841.4,532.6,854.6,532.6,870.9z"/>
	<path class="st3" d="M534.8,129.6c0,4.8-4,8.8-8.9,8.8h-55.1c-4.9,0-8.9-4-8.9-8.8l0,0c0-4.9,4-8.8,8.9-8.8h55.1
		C530.8,120.8,534.8,124.8,534.8,129.6L534.8,129.6z"/>
</g>
</svg>
