<?xml version="1.0" encoding="utf-8"?>
<!-- Generator: Adobe Illustrator 21.0.1, SVG Export Plug-In . SVG Version: 6.00 Build 0)  -->
<svg version="1.0" id="Layer_1" xmlns="http://www.w3.org/2000/svg" xmlns:xlink="http://www.w3.org/1999/xlink" x="0px" y="0px"
	 viewBox="0 0 1000 1000" style="enable-background:new 0 0 1000 1000;" xml:space="preserve">
<style type="text/css">
	.st0{fill:#414042;}
	.st1{fill:#E6E7E8;}
	.st2{fill:#58595B;}
	.st3{fill:#808285;}
</style>
<g>
	<path class="st0" d="M837.4,875.1c0,20.7-16.9,37.6-37.6,37.6H223.6c-20.6,0-37.6-16.9-37.6-37.6V103.7c0-20.7,16.9-37.6,37.6-37.6
		h576.2c20.7,0,37.6,16.9,37.6,37.6V875.1z"/>
	<rect x="249.2" y="138.1" class="st1" width="525.1" height="702.5"/>
	<path class="st2" d="M520.1,104.7c0,4.6-3.8,8.3-8.4,8.3c-4.6,0-8.4-3.7-8.4-8.3c0-4.6,3.7-8.3,8.4-8.3
		C516.3,96.4,520.1,100.1,520.1,104.7z"/>
	<path class="st3" d="M526.4,874.1c0,8.1-6.5,14.6-14.6,14.6c-8.1,0-14.6-6.6-14.6-14.6c0-8.1,6.5-14.6,14.6-14.6
		C519.8,859.5,526.4,866,526.4,874.1z"/>
</g>
</svg>
