<?xml version="1.0" encoding="utf-8"?>
<!-- Generator: Adobe Illustrator 21.0.1, SVG Export Plug-In . SVG Version: 6.00 Build 0)  -->
<svg version="1.1" id="Layer_1" xmlns="http://www.w3.org/2000/svg" xmlns:xlink="http://www.w3.org/1999/xlink" x="0px" y="0px"
	 viewBox="0 0 1000 1000" style="enable-background:new 0 0 1000 1000;" xml:space="preserve">
<style type="text/css">
	.st0{fill:#EC4233;}
	.st1{fill:#B9B9B9;}
	.st2{fill:#313030;}
	.st3{fill:#EC3E2E;}
	.st4{fill:#363636;}
	.st5{fill:#373737;}
	.st6{fill:#353434;}
	.st7{fill:#EC4231;}
	.st8{fill:#FDC611;}
	.st9{fill:#FFD106;}
</style>
<path class="st0" d="M289.2,546c4.4-4.5,8.8-9.1,13.2-13.6c56.2-8.6,112.2-14.9,166.2,11.9c4.2,2.1,11.9-2.8,18-4.5
	c49.7,4.4,97-2.7,140.2-29.2c23.4,0.4,46.8,0,70.1,1.4c45.1,2.6,76.2,25.9,83,66.9c13.5,80.7,24.5,161.8,36.5,242.7
	c-1.6,12.2-6.2,24.8-4.4,36.4c6.5,40.8,7.3,40.8-33.6,40.8c-171.8,0.1-343.6,0-515.3,0c-10.3,0-20.6-0.9-29.1-1.3
	c0-31.3,0-60.6,0-89.9c0.3-2.4,0.6-4.9,1-7.3c25.2-19.5,23.2-44,13-70.1c0.3-2.4,0.6-4.9,1-7.3c28.6-20.2,16.5-50.6,19.3-77.3
	C275.3,612.3,282.2,579.1,289.2,546z M557.5,733.3c-16.7-11.1-26.9-23.3-35.6-22.2c-8.5,1-19.7,14.6-21.5,24.2
	c-1,5.8,13.7,20.5,21.2,20.4C531.3,755.5,540.8,744.5,557.5,733.3z M553.8,636.9c-13.8-10-24.3-22.8-30.8-21
	c-9.2,2.5-15.4,15.8-22.9,24.5c8.1,6.6,16.3,18.4,24.4,18.4C532.7,658.8,540.9,647.1,553.8,636.9z M553.7,828.7
	c-13.1-9.7-21.8-21.1-30.1-20.9c-8.1,0.3-15.8,12.5-23.7,19.4c7.8,8.4,14.5,21.5,23.8,23.7C530.3,852.4,540.3,839.2,553.7,828.7z"/>
<path class="st1" d="M626.8,510.5c-43.3,26.5-90.6,33.5-140.2,29.2c-25.6-9.8-51.2-19.6-76.7-29.3c-37.8-37.5-74.3-75.7-80.1-132.7
	c-0.2-2.4-7.1-4.2-10.8-6.2c0-16.7,0-33.4,0-50c6.4-12.2,14.6-23.9,19-36.8c29.5-87.4,119.4-144.2,208.6-130.9
	c97.8,14.6,162.4,90.9,166.2,187.8c2,51.6-22.1,91.6-42.9,134.2c-5.7,0.7-11.6,2.4-17.2,1.8c-41.6-4.5-83-11.2-124.7-13.7
	c-31.7-1.9-36.8,9.6-22.9,42.3c0,0,0.6,0.6,0.6,0.6c7.8,2.8,15.9,8.4,23.4,7.8c32.6-2.8,65-7.4,97.5-11.3
	C626.6,505.6,626.7,508.1,626.8,510.5z"/>
<path class="st2" d="M318.8,321.4c0,16.7,0,33.4,0,50c-2.2,11.8-4.3,23.6-6.5,35.4c-2.9,1.8-5.8,3.7-8.8,5.5
	c-4.5,0.7-9.1,1.4-13.6,2.1c-11.9-11.4-34.2-23-33.9-34.1c1.4-51.6-22.3-110.4,33.4-150.2c0,0,0,0,0,0c2.4-2.3,4.8-4.5,7.2-6.8
	c0,0,0.1-0.1,0.1-0.1c4.6-7.3,9.3-14.7,13.9-22c36.9-60,91.7-95.3,159.2-109.6c104-22,204.5,20.9,265,109.7
	c7.8,11.4,17.6,21.3,26.4,32c2,1.4,4,2.8,6,4.2c0,0,0.4,0.2,0.4,0.2c7,11.4,20,22.9,20,34.3c0.1,48.8-3.5,97.6-5.8,146.5
	c-1.8,1.6-4,2.3-6.4,2c-7.6,0.1-15.2,0.2-22.8,0.3c-23.1,0.4-30.1-11.7-28.6-33.5c1.5-22.1-1.2-44.6,0.7-66.7
	c7.7-85.1-40.2-136.6-108.1-171.9c-72.1-37.5-145.8-32.4-213,13.4C348.9,199.5,306.5,246.7,318.8,321.4z"/>
<path class="st3" d="M234.1,807.4c0,29.3,0,58.6,0,89.9c8.5,0.4,18.8,1.3,29.1,1.3c171.8,0.1,343.6,0.1,515.3,0
	c40.9,0,40.1,0,33.6-40.8c-1.8-11.6,2.7-24.2,4.4-36.4c19.7,91.8,19.7,91.8-73.3,91.8c-163.6,0-327.2-0.7-490.8,0.6
	c-30.4,0.2-40.6-8.1-32.7-38C225.7,853.3,229.4,830.2,234.1,807.4z"/>
<path class="st4" d="M752.7,420.8c7.6-0.1,15.2-0.2,22.8-0.3c-3.4,45.4-32.9,64-73.3,70.8c-25.2,4.3-50.5,7.9-75.7,11.8
	c-32.5,3.9-64.9,8.5-97.5,11.3c-7.5,0.6-15.6-5-23.4-7.8c29.3-9.9,68.4,13.8,98.3-30.1c-27.6,0-45.9,1.6-63.9-0.4
	c-23.7-2.6-34.6,6.8-35,30c-13.9-32.7-8.9-44.2,22.9-42.3c41.7,2.5,83.1,9.2,124.7,13.7c5.6,0.6,11.4-1.1,17.2-1.8
	c12.4-1.8,25.1-2.7,37.2-5.7C732.5,463.5,756.5,454.8,752.7,420.8z"/>
<path class="st5" d="M289.5,230.3c-55.7,39.7-32,98.5-33.4,150.2c-0.3,11,22,22.7,33.9,34.1c-29.1,17.9-44.9,0.9-47.4-24.2
	c-4-40.1-5.8-81.6,0.7-121C245.8,254.2,273.4,243.2,289.5,230.3z"/>
<path class="st6" d="M781.9,418.5c2.3-48.8,6-97.6,5.8-146.5c0-11.5-13-22.9-20-34.3c27.5,5.7,37.2,22.7,35.5,50.3
	c-1.8,28.9,1.9,58.3-1.3,86.9C800.2,390,788.9,404,781.9,418.5z"/>
<path class="st7" d="M409.8,510.4c25.6,9.8,51.2,19.6,76.7,29.3c-6.1,1.7-13.8,6.6-18,4.5c-53.9-26.8-109.9-20.4-166.2-11.9
	C333.7,503,373.4,514.8,409.8,510.4z"/>
<path class="st7" d="M289.2,546c-6.9,33.2-13.9,66.3-20.8,99.5c-1.8,0-3.5,0-5.3,0C271.8,612.3,280.5,579.1,289.2,546z"/>
<path class="st3" d="M263.1,645.4c1.8,0,3.5,0,5.3,0c-2.8,26.7,9.3,57-19.3,77.3C253.7,696.9,258.4,671.2,263.1,645.4z"/>
<path class="st3" d="M248.1,730c10.1,26.1,12.2,50.6-13,70.1C239.4,776.7,243.7,753.3,248.1,730z"/>
<path class="st5" d="M310.6,201.4c-4.6,7.3-9.3,14.7-13.9,22C301.4,216,306,208.7,310.6,201.4z"/>
<path class="st6" d="M767.3,237.6c-2-1.4-4-2.8-6-4.2C763.3,234.8,765.3,236.2,767.3,237.6z"/>
<path class="st5" d="M296.7,223.5c-2.4,2.3-4.8,4.5-7.2,6.8C291.9,228,294.3,225.8,296.7,223.5z"/>
<path class="st5" d="M303.6,412.4c2.9-1.8,5.8-3.7,8.8-5.5C309.5,408.7,306.6,410.5,303.6,412.4z"/>
<path class="st8" d="M557.5,733.3c-16.7,11.2-26.2,22.2-35.8,22.4c-7.5,0.2-22.3-14.5-21.2-20.4c1.7-9.6,12.9-23.2,21.5-24.2
	C530.5,710.1,540.8,722.2,557.5,733.3z"/>
<path class="st9" d="M553.8,636.9c-12.9,10.3-21.1,21.9-29.3,21.9c-8.1,0-16.3-11.8-24.4-18.4c7.5-8.7,13.7-22,22.9-24.5
	C529.4,614.1,539.9,626.9,553.8,636.9z"/>
<path class="st9" d="M553.7,828.7c-13.4,10.5-23.4,23.7-29.9,22.2c-9.3-2.2-16-15.2-23.8-23.7c7.9-7,15.6-19.1,23.7-19.4
	C531.9,807.6,540.6,819,553.7,828.7z"/>
<path class="st2" d="M505,506.1c0.4-23.2,11.3-32.6,35-30c18,2,36.3,0.4,63.9,0.4c-30,44-69,20.3-98.3,30.1
	C505.5,506.7,505,506.1,505,506.1z"/>
</svg>
