<?xml version="1.0" encoding="utf-8"?>
<!-- Generator: Adobe Illustrator 21.0.1, SVG Export Plug-In . SVG Version: 6.00 Build 0)  -->
<svg version="1.1" id="Layer_1" xmlns="http://www.w3.org/2000/svg" xmlns:xlink="http://www.w3.org/1999/xlink" x="0px" y="0px"
	 viewBox="0 0 1000 1000" style="enable-background:new 0 0 1000 1000;" xml:space="preserve">
<style type="text/css">
	.st0{fill:#363534;}
	.st1{fill:#FFCA1E;}
	.st2{fill:#D9513D;}
	.st3{fill:#ABABAC;}
	.st4{fill:#FBC220;}
	.st5{fill:#FBC121;}
	.st6{fill:#FCC420;}
	.st7{fill:#FCC520;}
	.st8{fill:#FCC320;}
</style>
<path class="st0" d="M754.7,902.2c-16.7,4.6-33.3,13.1-50,13.2c-166.2,1-332.5,0.7-498.7,0.5c-51.1,0-68.3-17.3-68.4-68.3
	c-0.1-231.6-0.1-463.1,0-694.7c0-52.9,17.1-69.8,70.6-69.9c165.1-0.1,330.1-0.2,495.2,0c50.9,0.1,68,17.4,67.9,68.6
	c-0.1,128.2-0.5,256.5-0.8,384.7c-18.4-8.9-36.7-15.9-54.7,0.8c-0.4-122.4-1.3-244.8-0.6-367.2c0.2-26.1-8.1-37.4-34.4-36.1
	c-21.3,1.1-42.8,0.2-64.2,0.2c-128.4,0-256.7,0.2-385.1-0.2c-22.8-0.1-38.2,2.8-38.1,32.4c0.9,204.4,0.7,408.9,0.3,613.3
	c0,20.8,6.9,30.3,28.8,30.1c130.7-0.9,261.4-1.1,392.1-1.5C665.1,834,728,841.1,754.7,902.2z M454.5,883.4
	c10.1-12.2,22.2-21,20.8-26.5c-2.2-9.1-13.2-16-20.4-23.8c-7,7.8-17.6,14.8-19.6,23.8C434,862.6,445.3,871.3,454.5,883.4z"/>
<path class="st1" d="M715.8,537.2c18-16.6,36.3-9.7,54.7-0.8c43.5,53.7,68.3,113.9,75.5,183.7c3.3,32,23.1,62.4,37.3,98.3
	c-30.8,26.5-66,57.8-102.7,87.1c-4.7,3.8-17.1-2-25.9-3.4c-26.6-61.1-89.6-68.3-140-94c-39.9-29.4-80.5-58-119.3-88.8
	c-9.1-7.3-12.4-21.9-18.4-33.2c12.7-3.4,27.3-12.5,37.9-9.1c24.5,7.9,47,21.9,70.4,33.4c3.5,3,6.9,6.1,10.4,9.1
	c2.6-2.6,5.1-5.3,7.7-7.9c-4.8-1.8-9.7-3.5-14.5-5.3c-4.1-8.4-7.4-17.4-12.5-25.2c-36.6-56.9-74.3-113.1-109.9-170.5
	c-10.8-17.4-35.6-39.5-8-58.3c27-18.4,38.4,11.2,50.8,28.4c24.9,34.5,48.8,69.7,72.1,103.2c14-9.1,25.4-20.7,39.1-24.7
	C651.5,550,683.9,544.3,715.8,537.2z"/>
<path class="st2" d="M585.2,710.6c-23.3-11.5-45.9-25.4-70.4-33.4c-10.5-3.4-25.1,5.7-37.9,9.1c6,11.3,9.3,25.9,18.4,33.2
	c38.8,30.8,79.4,59.4,119.3,88.8c-130.7,0.4-261.4,0.6-392.1,1.5c-21.9,0.2-28.9-9.3-28.8-30.1c0.4-204.4,0.7-408.9-0.3-613.3
	c-0.1-29.6,15.3-32.5,38.1-32.4c128.4,0.3,256.7,0.2,385.1,0.2c21.4,0,42.8,0.9,64.2-0.2c26.4-1.3,34.6,10,34.4,36.1
	c-0.8,122.4,0.2,244.8,0.6,367.2c-31.9,7.1-64.3,12.8-95.6,22.1c-13.6,4.1-25.1,15.6-39.1,24.7c-23.3-33.5-47.2-68.7-72.1-103.2
	c-12.4-17.2-23.8-46.8-50.8-28.4c-27.5,18.7-2.7,40.9,8,58.3c35.7,57.4,73.3,113.6,109.9,170.5c5,7.8,8.4,16.8,12.5,25.2
	C587.6,707.8,586.4,709.2,585.2,710.6z M362.2,445.9c-8.3-5.7-15-13.9-19.8-13c-27.6,5.4-54.9,12.5-81.9,20.6
	c-3.6,1.1-7.8,12.7-5.9,16.6c2.3,4.7,11.5,9.9,16.5,8.9c25.3-5.2,50.4-11.9,75.2-19.1C351,458.4,354.5,452.8,362.2,445.9z
	 M463.2,316c3.1,4.7,7.7,11.7,12.3,18.8c5.8-4.6,14.8-8,17-13.9c8.1-22.2,15-45,20.2-68c1.4-6-4.9-13.6-7.6-20.5
	c-6.3,3.6-16.3,5.8-18.4,11.1C478.1,265.5,471.8,288.4,463.2,316z M619.3,489.8c4.5-2.6,11.9-6.8,19.3-11
	c-5.2-6.4-9.1-16.1-15.8-18.6c-22.1-8.3-45-14.7-68-20.1c-5-1.2-11.7,4.5-17.6,7.1c3.1,6.6,4.7,17.1,9.6,19.1
	C568.8,474.9,591.7,481.1,619.3,489.8z M365.3,477.2c-23,24.4-45.3,47.9-66.9,72c-1,1.1,3.4,10.1,6.4,10.9
	c5.8,1.6,14.8,2.4,18.5-0.9c19.3-17.1,37.6-35.4,55.5-54c3.2-3.3,4.7-11.1,3-15.3C380.1,485.6,373.5,483.2,365.3,477.2z
	 M552.6,412.7c28-6.7,52.3-11.6,75.9-18.9c5.5-1.7,8.5-11.6,12.7-17.8c-6.8-3.1-14.2-9.6-20.4-8.6c-23.2,3.7-46.3,9-68.8,15.7
	c-6,1.8-9.9,10.9-14.8,16.7C542.7,404.4,548.3,409.1,552.6,412.7z M434,523.4c-2.7-3.8-6.3-13.4-10.2-13.5
	c-6.3-0.2-16.7,4.4-18.6,9.4c-8.6,23.1-15.7,47-21.2,71c-1.2,5.4,4.7,14.3,9.9,18.4c2,1.6,14.5-3.9,16.1-8.3
	C418.8,576.2,425.6,551.1,434,523.4z M262.4,351c-1,2.4-5.7,9-5.4,15.3c0.2,5.5,5.1,13.9,9.8,15.6c24.4,8.6,49.3,16,74.5,22.2
	c4.5,1.1,14.5-4.6,15.5-8.7c1.2-4.9-3.3-15.2-7.6-16.7C323.6,369.4,297.5,362,262.4,351z M399.3,347c-30.5-28.4-54-50.3-77.6-72.3
	c-4.5,6.3-13.9,16.8-12.7,18.2c19.1,22.2,39,43.7,60.3,63.7C371.9,359.1,383.2,352.4,399.3,347z M437.7,316.3
	c-7-28.2-12.2-52.4-19.6-75.9c-1.6-5.2-11.5-7.8-17.6-11.5c-2.9,6.9-9.3,14.3-8.2,20.5c3.9,23.1,9.4,46.1,16.4,68.5
	c1.8,5.7,11.4,13,16.7,12.5C430.4,329.9,434.6,320.1,437.7,316.3z M529.4,367.5c22.7-24.1,45-47.9,67.4-71.7
	c-7.8-3.8-19.9-12.9-22.6-10.7c-20.8,17.4-40.2,36.6-59.1,56.2c-2.8,2.8-2.3,10.8-0.5,15.4C515.9,360.3,521.6,362.1,529.4,367.5z"/>
<path class="st3" d="M454.5,883.4c-9.2-12.1-20.5-20.7-19.2-26.6c2-8.9,12.6-15.9,19.6-23.8c7.3,7.8,18.2,14.8,20.4,23.8
	C476.7,862.4,464.6,871.2,454.5,883.4z"/>
<path class="st2" d="M588.8,706.4c4.8,1.8,9.7,3.5,14.5,5.3c-2.6,2.6-5.1,5.3-7.7,7.9c-3.5-3-6.9-6.1-10.4-9.1
	C586.4,709.2,587.6,707.8,588.8,706.4z"/>
<path class="st4" d="M362.2,445.9c-7.6,6.9-11.1,12.6-15.8,14c-24.9,7.2-49.9,13.9-75.2,19.1c-5,1-14.2-4.2-16.5-8.9
	c-1.9-3.9,2.3-15.5,5.9-16.6c26.9-8.1,54.3-15.2,81.9-20.6C347.2,431.9,353.9,440.2,362.2,445.9z"/>
<path class="st4" d="M463.2,316c8.7-27.6,14.9-50.5,23.5-72.5c2.1-5.3,12.1-7.5,18.4-11.1c2.7,6.9,8.9,14.6,7.6,20.5
	c-5.2,23-12.1,45.8-20.2,68c-2.2,5.9-11.1,9.4-17,13.9C470.9,327.8,466.2,320.7,463.2,316z"/>
<path class="st4" d="M619.3,489.8c-27.6-8.7-50.5-14.9-72.5-23.6c-4.9-2-6.5-12.5-9.6-19.1c5.9-2.5,12.6-8.3,17.6-7.1
	c23,5.4,45.9,11.8,68,20.1c6.7,2.5,10.6,12.2,15.8,18.6C631.2,483.1,623.8,487.3,619.3,489.8z"/>
<path class="st4" d="M365.3,477.2c8.2,6,14.7,8.4,16.5,12.7c1.7,4.1,0.1,12-3,15.3c-17.9,18.6-36.2,36.9-55.5,54
	c-3.7,3.3-12.7,2.5-18.5,0.9c-3.1-0.8-7.4-9.9-6.4-10.9C320,525.1,342.3,501.7,365.3,477.2z"/>
<path class="st5" d="M552.6,412.7c-4.3-3.6-9.9-8.2-15.4-12.9c4.9-5.8,8.7-14.9,14.8-16.7c22.5-6.7,45.6-12,68.8-15.7
	c6.2-1,13.6,5.5,20.4,8.6c-4.2,6.1-7.2,16.1-12.7,17.8C605,401,580.6,405.9,552.6,412.7z"/>
<path class="st6" d="M434,523.4c-8.4,27.7-15.2,52.7-24,77.1c-1.6,4.5-14.1,10-16.1,8.3c-5.2-4.2-11.1-13-9.9-18.4
	c5.5-24.1,12.6-47.9,21.2-71c1.9-5.1,12.3-9.6,18.6-9.4C427.7,510.1,431.3,519.6,434,523.4z"/>
<path class="st7" d="M262.4,351c35.2,10.9,61.3,18.3,86.7,27.6c4.3,1.6,8.8,11.8,7.6,16.7c-1,4.1-11,9.8-15.5,8.7
	c-25.1-6.2-50-13.6-74.5-22.2c-4.7-1.7-9.5-10.1-9.8-15.6C256.6,360,261.4,353.5,262.4,351z"/>
<path class="st6" d="M399.3,347c-16.1,5.4-27.4,12.1-30,9.6C348,336.6,328,315.1,309,292.9c-1.2-1.4,8.2-11.9,12.7-18.2
	C345.2,296.7,368.8,318.6,399.3,347z"/>
<path class="st8" d="M437.7,316.3c-3.1,3.9-7.3,13.6-12.3,14.1c-5.3,0.5-14.9-6.8-16.7-12.5c-6.9-22.4-12.4-45.4-16.4-68.5
	c-1.1-6.2,5.3-13.6,8.2-20.5c6.1,3.8,15.9,6.4,17.6,11.5C425.5,263.8,430.7,288,437.7,316.3z"/>
<path class="st7" d="M529.4,367.5c-7.8-5.4-13.5-7.3-14.8-10.8c-1.7-4.5-2.2-12.5,0.5-15.4c18.9-19.5,38.2-38.8,59.1-56.2
	c2.7-2.2,14.8,6.8,22.6,10.7C574.4,319.6,552,343.4,529.4,367.5z"/>
</svg>
