<?xml version="1.0" encoding="utf-8"?>
<!-- Generator: Adobe Illustrator 21.0.0, SVG Export Plug-In . SVG Version: 6.00 Build 0)  -->
<svg version="1.1" id="Layer_1" xmlns="http://www.w3.org/2000/svg" xmlns:xlink="http://www.w3.org/1999/xlink" x="0px" y="0px"
	 viewBox="0 0 1000 1000" style="enable-background:new 0 0 1000 1000;" xml:space="preserve">
<style type="text/css">
	.st0{fill:#F3F3F3;}
	.st1{clip-path:url(#SVGID_2_);}
	.st2{fill:#DCDBDB;}
	.st3{fill:#AEC93A;}
	.st4{fill:#09B1BF;}
	.st5{fill:none;stroke:#FFFFFF;stroke-width:8;stroke-linecap:round;stroke-linejoin:round;stroke-miterlimit:10;}
	.st6{fill:#A1D39A;}
	.st7{fill:#FFF4F2;}
	.st8{fill:none;stroke:#898989;stroke-width:2;stroke-linejoin:round;}
	.st9{fill:none;stroke:#898989;stroke-width:2;stroke-linejoin:round;stroke-dasharray:4.0468,4.0468;}
	.st10{fill:#956C98;}
	.st11{fill:#DF1C76;}
	.st12{fill:none;}
	.st13{fill:#FFFFFF;}
	.st14{font-family:'MyriadPro-Bold';}
	.st15{font-size:15.2734px;}
	.st16{font-size:13.441px;}
	.st17{fill:#434343;}
	.st18{fill:none;stroke:#AEAEAE;stroke-width:2;stroke-miterlimit:10;stroke-dasharray:6,8;}
	.st19{fill:#C8C8C8;}
	.st20{fill:#E6E6E5;}
	.st21{fill:none;stroke:#07A14A;stroke-width:0.25;stroke-miterlimit:10;}
	.st22{fill:#D7D6D6;}
	.st23{fill:#70B349;}
	.st24{fill:#DEAB54;}
	.st25{fill:#D5655D;}
	.st26{fill:#A4A4A5;}
	.st27{opacity:0.9;fill:#D6D5D5;}
	.st28{fill:#C7C6C5;}
	.st29{fill:#939598;}
	.st30{font-family:'MyriadPro-Regular';}
	.st31{font-size:12px;}
	.st32{fill:#A7A9AC;}
	.st33{font-size:7.2367px;}
	.st34{letter-spacing:16;}
	.st35{letter-spacing:20;}
	.st36{fill:#BE1E2D;}
	.st37{fill:#ED1C24;}
</style>
<g>
	<g id="XMLID_3_">
		<g>
			<path class="st0" d="M847.653,349.164v369.024c0,3.607-2.917,6.511-6.511,6.511H158.864c-3.607,0-6.511-2.904-6.511-6.511
				V349.164c0-3.594,2.904-6.511,6.511-6.511h682.278C844.736,342.653,847.653,345.57,847.653,349.164z"/>
		</g>
		<g>
		</g>
	</g>
	<g>
		<defs>
			<path id="SVGID_1_" d="M847.258,725.797c0,3.605-2.915,6.507-6.507,6.507H158.86c-3.605,0-6.507-2.902-6.507-6.507V356.982
				c0-3.592,2.902-6.507,6.507-6.507h681.891c3.592,0,6.507,2.915,6.507,6.507V725.797z"/>
		</defs>
		<clipPath id="SVGID_2_">
			<use xlink:href="#SVGID_1_"  style="overflow:visible;"/>
		</clipPath>
		<g class="st1">
			<rect x="152.246" y="346.053" class="st2" width="694.772" height="694.772"/>
			<polygon class="st3" points="690.767,564.242 708.823,602.864 846.046,550.807 845.813,468.853 			"/>
			<polygon class="st4" points="152.965,513.185 176.18,502.897 213.832,415.38 185.132,398.483 201.096,387.495 217.549,346.053 
				152.246,346.053 			"/>
			<polygon class="st3" points="311.101,383.163 281.153,471.608 273.529,505.52 332.904,495.097 336.847,452.255 349.332,384.059 
							"/>
			<g>
				<g>
					<path class="st5" d="M826.403,505.522"/>
				</g>
				<g>
					<polygon class="st6" points="612.556,667.953 645.925,742.941 690.767,742.941 675.802,675.821 657.438,643.565 					"/>
					<g>
						<g>
							<path class="st7" d="M155.907,724.333c1.237-2.04,0.586-4.697-1.455-5.934l-1.488-0.902v8.845
								C154.146,726.132,155.236,725.439,155.907,724.333z"/>
							<path class="st7" d="M644.37,979.831c1.667-0.138,3.349-0.276,5.06-0.417c4.166-0.344,8.473-0.699,12.893-1.071
								l11.004,62.482h8.773l-11.133-63.218c11.666-1.007,25.462-1.997,40.022-2.935l3.801,12.422l-16.52,1.156
								c-2.397,0.164-4.175,2.231-4.008,4.611c0.166,2.38,2.231,4.175,4.611,4.008l21.811-1.525c0.084-0.003,0.21-0.003,0.25-0.018
								l13.06-0.914l3.923,32.742l-38.364,3.577c-0.007,0.001-0.013,0.001-0.02,0.002c-2.366,0.231-4.102,2.331-3.881,4.7
								c0.221,2.376,2.327,4.122,4.702,3.901l18.598-1.734l0.342,3.224h8.689l-0.427-4.026l15.58-1.453
								c0.007-0.001,0.013-0.001,0.019-0.002c1.153-0.112,2.214-0.684,2.942-1.586c0.732-0.906,1.067-2.071,0.929-3.228
								l-4.94-41.229c-0.274-2.287-2.294-3.957-4.591-3.796l-13.856,0.969l-3.783-12.362c20.974-1.295,42.917-2.47,61.945-3.425
								l-0.303,6.569l-24.459-1.129c-1.198-0.051-2.369,0.392-3.226,1.233c-0.857,0.842-1.325,2.002-1.292,3.204l0.286,10.263
								c0.067,2.385,2.054,4.264,4.439,4.198c0.101-0.003,0.203-0.009,0.303-0.019c2.239-0.218,3.958-2.137,3.895-4.42l-0.156-5.611
								l24.128,1.113c1.144,0.051,2.263-0.352,3.11-1.124c0.846-0.772,1.352-1.848,1.405-2.993l0.54-11.712
								c22.125-1.084,38.941-1.811,43.234-1.994c4.784,1.134,9.439,2.159,14.035,3.083V955.66c-3.774-0.79-7.594-1.648-11.506-2.584
								c-0.691-0.164-1.399-0.233-2.108-0.203c-0.262,0.011-6.828,0.287-17.413,0.768l0.142-106.192l22.566,1.042
								c1.958,0.271,4.898,0.659,8.32,1.102v-8.713c-3.03-0.394-5.599-0.734-7.327-0.975c-0.132-0.018-0.264-0.03-0.397-0.037
								l-27.224-1.257c-0.032-0.002-0.065-0.003-0.098-0.005l-16.112-0.743l0.919-19.909c0.002-0.038,0.004-0.076,0.005-0.115
								l1.076-23.3l38.525,9.138c1.272,0.302,2.611,0.012,3.644-0.789c1.033-0.801,1.648-2.025,1.673-3.331l0.682-35.428
								l0.123,0.013c0.061,0.006,0.123,0.012,0.184,0.016l2.447,0.162c0.604,0.04,1.234,0.082,1.88,0.125v-9.622
								c-0.421-0.028-0.844-0.056-1.246-0.083l-2.353-0.156l-0.85-0.09l0.071-3.654c0.004-0.112,0.004-0.225-0.002-0.337
								c-0.006-0.145-0.019-0.288-0.039-0.428L827.258,621.33c10.652-1.24,19.085-1.143,19.235-1.141
								c0.121,0.002,0.243-0.002,0.363-0.011l0.88-0.07v-7.705l-1.311,0.104c-2.706-0.028-29.162-0.089-48.595,7.913
								c-11.406,4.696-25.952,4.993-38.855,4.018c-0.697-0.425-1.521-0.662-2.398-0.631c-0.496,0.017-0.961,0.135-1.4,0.305
								c-6.696-0.64-12.789-1.554-17.54-2.269c-2.625-0.395-4.892-0.736-6.768-0.964c-7.359-0.894-12.66,0.841-16.156,2.85
								c-1.042-4.697-2.346-8.431-3.558-11.244c39.544-20.93,96.111-39.678,136.581-51.717v-16.094
								c-38.775,11.367-94.243,29.412-136.111,50.302l-15.089-30.472c41.375-23.333,126.409-77.694,130.71-80.444
								c2.01-1.286,2.596-3.958,1.31-5.968c-1.285-2.009-3.955-2.598-5.967-1.311c-1.037,0.664-86.183,55.097-128.205,79.03
								l-7.055-33.685l24.449,1.128c1.864,0.086,3.426-1.349,3.511-3.202c0.086-1.854-1.348-3.426-3.201-3.512l-26.182-1.208
								l-7.315-34.925c9.194-2.495,26.945-3.281,51.622-2.271c0.403,0.213,0.857,0.346,1.341,0.378l46.629,3.111
								c1.827,0.122,3.413-1.239,3.572-3.061c0.158-1.823-1.171-3.437-2.989-3.632c-0.209-0.022-20.484-2.183-43.461-3.295
								l0.326-7.063l11.41,0.075c1.858,0.017,3.37-1.483,3.382-3.338s-1.483-3.37-3.339-3.382l-20.407-0.133
								c-1.795-0.018-3.281,1.388-3.377,3.18c-0.096,1.792,1.232,3.343,3.017,3.523l2.576,0.26l-0.304,6.588
								c-25.722-0.974-43.55,0.01-53.032,2.93c-0.117,0.036-0.249,0.073-0.372,0.109l-24.534-14.168l13.562-23.012
								c6.391,1.559,12.762,2.798,18.782,3.499c42.408,4.936,51.546,5.084,54.335,0.886c2.332-3.509,7.336-21.259,0.808-28.42
								c-7.059-7.743-12.089-3.33-12.298-3.139c-1.373,1.249-1.473,3.374-0.225,4.747c1.128,1.239,2.971,1.443,4.328,0.549
								c0.39,0.043,1.534,0.513,3.228,2.37c3.16,3.467,0.553,16.292-1.187,19.733c-3.409,1.116-17.62-0.061-31.128-1.483
								l6.22-44.757l96.763,11.516l-0.081,1.766c-0.051,1.109,0.382,2.194,1.185,2.962c0.803,0.767,1.901,1.164,3.007,1.062
								l38.547-3.533c0.007-0.001,0.013-0.001,0.02-0.002c0.436-0.043,0.842-0.172,1.22-0.347v-7.003
								c-0.53-0.248-1.115-0.392-1.736-0.37l-29.55,1.059l-6.181-22.432c-0.402-1.458-1.622-2.545-3.116-2.775l-98.621-15.238
								c-0.426-0.229-0.903-0.38-1.412-0.433l-32.701-3.422l0.367-7.95h-7.688l-0.313,6.781l-19.649-1.685
								c-0.798-0.068-1.558,0.115-2.207,0.481l-17.997-5.577h-42.682l29.603,3.374l-5.771,60.858
								c-13.846-3.578-46.514-5.948-59.219-6.762c1.879-19.725,3.794-40.666,5.309-57.47h-15.424
								c-1.237,13.708-2.726,30.006-4.237,46.078l-0.501-0.509c-0.457-0.465-1.039-0.787-1.675-0.926l-27.346-6.003
								c-1.774-0.388-3.537,0.702-3.98,2.463l-10.133,40.333c-10.644-0.803-18.324-1.403-20.601-1.626
								c-0.203-0.02-0.405-0.03-0.607-0.045l5.31-22.206l4.479,0.77c1.679,0.289,3.306-0.722,3.791-2.354l16.652-55.976h-7.012
								l-4.402,14.796l-72.777-6.841l0.893-7.954h-4.83l-0.842,7.505l-4.45-0.418c-1.757-2.469-3.437-4.822-5.057-7.087h-18.915
								c0.821,1.139,1.659,2.302,2.523,3.504c-1.812-0.371-3.637-0.746-5.457-1.121l0.449-2.382h-4.886l-0.266,1.409
								c-2.308-0.48-4.569-0.953-6.733-1.409h-24.982c-1.416,3.064-3.157,8.625-5.507,19.163c-1.37,6.14-2.54,12.201-3.215,15.825
								l-21.543-4.365c2.945-10.346,6.366-20.712,10.499-30.622H306.84c-0.903,2.344-1.776,4.701-2.611,7.069
								c-4.856-1.712-12.005-4.231-20.051-7.069h-20.202c14.778,5.214,29.81,10.512,38.093,13.431
								c-5.721,17.499-9.807,35.27-13.39,51.349l-69.342-24.111c-0.392-0.454-0.91-0.807-1.519-1.002l-13.416-4.278
								c1.34-2.625,2.65-5.425,3.911-8.405c4.575-10.818,7.559-19.98,9.771-26.985h-7.05c-2.101,6.579-4.88,14.839-8.91,24.367
								c-9.946,23.518-23.368,35.111-27.144,38.04l-1.158,0.852c-1.47,1.081-1.808,3.136-0.764,4.631
								c1.045,1.496,3.091,1.884,4.611,0.878c0.122-0.081,0.708-0.476,1.657-1.214l10.668-7.848l16.754,9.366l-31.986,84.817
								l-21.795,9.769v7.365l25.821-11.574c0.817-0.366,1.453-1.043,1.769-1.881l33.277-88.241c0.183-0.3,0.337-0.618,0.419-0.968
								l4.86-20.653l68.099,23.679c-2.979,13.381-5.842,25.919-9.14,35.609c-11.138,32.722-37.489,83.85-39.319,87.385
								c-1.468,2.466-16.653,27.932-33.4,54.584l-52.386-29.395v9.908l47.767,26.803c-9.115,14.368-18.362,28.502-25.842,38.999
								c-7.324-2.913-14.698-5.552-21.925-7.959v16.223c4.098,1.415,8.22,2.902,12.329,4.475c-3.769,4.776-7.96,9.909-12.329,15.181
								v27.637l33.066,14.843c0.71,0.319,1.461,0.43,2.185,0.36c1.492-0.146,2.867-1.066,3.526-2.532
								c0.977-2.177,0.005-4.734-2.173-5.711L156.493,689c8.437-10.062,16.79-20.12,23.556-28.865
								c17.747,7.869,34.227,17.465,45.915,29.258c1.891,1.909,3.845,3.887,5.846,5.918l-17.229,15.101
								c-0.318-0.016-0.637-0.004-0.95,0.072c-0.887,0.212-1.649,0.775-2.113,1.56l-16.828,28.511
								c-1.32-0.957-2.997-2.042-4.951-3.028c-5.622-2.84-22.755-1.325-26.663,1.64c-1.078,0.818-2.396,2.059-3.923,3.495
								c-1.77,1.667-4.162,3.918-6.189,5.399v7.671c3.492-1.306,7.365-4.946,10.795-8.177c1.329-1.251,2.584-2.432,3.348-3.012
								c2.239-1.448,16.175-2.75,19.602-1.017c3.931,1.985,6.499,4.479,6.517,4.497c0.736,0.729,1.75,1.081,2.796,0.945
								c1.027-0.132,1.937-0.732,2.463-1.624l17.052-28.891c0.992,0.631,2.188,1.392,3.495,2.223
								c-11.497,15.618-22.06,38.161-26.89,50.245c-4.632,11.589-6.619,18.605-7.409,21.861l-7.557,3.064l-24.214-0.224v8.641
								l12.674,0.117c-3.448,8.789-8.033,19.586-12.674,29.311v16.78c8.847-15.64,17.757-37.967,20.413-44.796l2.95-1.196
								l6.854,0.063l124.779,19.388c0.442,0.075,0.899,0.082,1.353,0.014c0.448-0.065,0.875-0.201,1.273-0.396l31.148-14.811
								c1.114,3.212,2.737,8.874,3.583,16.458l-9.917-0.458c-2.387-0.11-4.404,1.733-4.515,4.117
								c-0.109,2.384,1.733,4.404,4.117,4.515l10.86,0.501c0.064,4.253-0.151,9.096-0.845,14.434l-38.787,11.567l-3.635-5.094
								c-1.386-1.942-4.082-2.392-6.026-1.007c-1.942,1.386-2.393,4.084-1.007,6.026l5.359,7.509
								c0.045,0.066,0.091,0.132,0.14,0.196l23.336,32.701c-0.972,1.172-1.987,2.311-3.035,3.408l-40.866-57.535
								c-1.381-1.946-4.08-2.403-6.024-1.02c-1.945,1.381-2.402,4.079-1.02,6.024l41.511,58.443
								c-19.294,15.783-46.706,22.356-67.309,25.077l5.108-19.524l9.319-14.73c0.765-1.211,0.881-2.721,0.31-4.034l-13.246-30.424
								c-0.952-2.19-3.502-3.191-5.685-2.238c-2.189,0.953-3.189,3.499-2.238,5.686l12.332,28.325l-6.914,10.928l-19.172-3.279
								l-10.398-23.8c-0.956-2.186-3.502-3.183-5.689-2.23c-2.187,0.956-3.184,3.502-2.23,5.689l11.161,25.542l-47.263,0.325
								c-2.402,0.017-4.307,1.964-4.291,4.349c0.016,2.386,1.964,4.307,4.349,4.291l50.115-0.344
								c2.394-0.015,4.307-1.964,4.291-4.35c-0.001-0.242-0.023-0.479-0.063-0.711l15.93,2.725l-4.926,18.826
								c-11.482,1.041-19.267,0.871-19.523,0.863c-2.393-0.062-4.373,1.81-4.442,4.196c-0.068,2.384,1.808,4.373,4.193,4.442
								c0.688,0.02,13.003,0.337,29.854-1.863l-0.774,16.777c-0.005,0.066-0.008,0.133-0.009,0.199l-1.717,37.208l-13.113-0.605
								c-2.381-0.109-4.405,1.732-4.515,4.117c-0.11,2.383,1.733,4.404,4.117,4.515l45.578,2.104
								c-4.875,5.859-7.097,11.143-7.736,12.846c-15.962-4.816-32.654-8.523-52.49-1.081c-0.192-0.168-0.394-0.327-0.62-0.463
								l-64.294-38.627v10.08l55.384,33.274c-20.428,9.87-38.924,14.357-55.384,15.883v1.339h54.736
								c3.217-1.408,6.443-2.916,9.685-4.533c20.144-10.043,35.961-5.112,54.277,0.601c4.279,1.335,8.731,2.718,13.372,3.932h49.642
								c8.69-2.124,17.58-4.865,26.274-7.548c28.417-8.77,55.251-17.054,66.003-1.989c2.324,3.257,4.675,6.436,7.03,9.538h20.978
								c1.483-2.336,3.126-4.733,4.989-7.197c2.05-2.71,4.537-5.639,6.943-8.471c3.793-4.466,7.376-8.684,9.938-12.723
								c0.337-0.531,0.665-1.061,0.985-1.59c11.184-0.297,25.19-1.329,38.908-3.564l6.393,33.546h8.796l-6.69-35.104
								c2.797-0.573,5.552-1.203,8.24-1.892l8.261,36.996h8.853l-8.799-39.403c4.498-1.473,8.683-3.153,12.392-5.067
								c11.557-5.962,25.723-9.377,43.587-11.859l7.101,30.232c0.008,0.034,0.016,0.069,0.024,0.103l6.106,25.994h8.876
								l-5.794-24.667l14.45-7.094c2.141-1.052,3.025-3.64,1.974-5.782c-1.051-2.142-3.639-3.026-5.783-1.974l-12.669,6.22
								l-5.668-24.129c6.966-0.816,14.449-1.541,22.507-2.253c4.426,18.269,9.792,40.075,14.642,59.68h15.827
								C654.469,1021.101,648.951,998.703,644.37,979.831z M710.209,368.652l0.377-2.706l92.938,14.36l4.167,15.123l-98.204-11.685
								L710.209,368.652z M208.73,408.535l-15.851-8.861c2.659-3.412,5.458-7.451,8.217-12.178l11.633,4.045L208.73,408.535z
								 M690.21,823.282c-0.964,1.899-1.875,3.694-2.671,5.397c-6.54,13.991-3.701,42.481-3.435,44.99l0.137,2.799l-14.985,3.524
								l-3.128-134.507l40.167,4.232c0.227,32.164-5.67,50.999-11.393,63.871l-5.962-3.127c-1.642-0.862-3.651-0.58-4.992,0.702
								l-10.872,10.39c-1.725,1.649-1.787,4.384-0.139,6.108c1.65,1.726,4.387,1.787,6.108,0.139l8.628-8.246l3.496,1.834
								C690.843,822.035,690.523,822.666,690.21,823.282z M529.881,940.34l1.326,6.838c-0.772,0.245-1.543,0.492-2.313,0.741
								c-19.41,6.277-29.258,4.297-34.1,1.527c-3.895-2.228-5.122-5.379-5.418-6.346c0.812-1.038,5.157-5.358,22.878-8.286
								c28.007-4.625,77.033-18.786,94.511-23.957c2.716,5.723,5.208,11.084,7.275,15.786c-14.72,2.813-44.547,8.984-74.529,17.971
								l-1.148-5.92c-0.454-2.343-2.722-3.875-5.063-3.418C530.957,935.73,529.427,937.997,529.881,940.34z M254.755,718.549
								l-7.845,2.999c-0.744,0.284-1.363,0.824-1.746,1.523c-0.012,0.021-1.298,2.18-3.207,2.686
								c-1.047,0.275-2.195,0.013-3.521-0.803c-2.095-1.288-5.316-3.312-8.661-5.426c1.464-1.665,2.916-3.155,4.341-4.406
								c2.9-2.543,5.94-5.42,8.943-8.387C247.008,710.742,250.907,714.682,254.755,718.549z M246.756,688.596l10.068-8.824
								l0.528,0.556c-2.107,2.376-5.284,5.913-8.998,9.892C247.819,689.676,247.285,689.133,246.756,688.596z M253.752,695.706
								c3.613-3.866,6.734-7.333,8.91-9.784l8.184,8.623l-9.929,8.424C258.47,700.494,256.078,698.068,253.752,695.706z
								 M276.803,700.822l0.959,1.011l-8.973,9.068c-0.592-0.594-1.182-1.187-1.77-1.778L276.803,700.822z M298.162,551.26
								l21.53,0.994c0.66,1.257,1.275,2.399,1.806,3.368c0.492,1.6,2.25,7.174,5.276,15.349l-7.202-5.176
								c-0.419-0.302-0.895-0.498-1.391-0.583L298.162,551.26z M304.706,564.012c-6.526-1.598-14.371-4.174-20.732-6.58l0.302-6.813
								l0.984,0.046c0.98,0.56,1.927,1.138,2.772,1.728L304.706,564.012z M319.046,529.113c8.717-2.034,15.047-3.174,17.895-3.651
								l10.308,14.428c0.023,0.032,0.051,0.062,0.075,0.094c0.101,0.133,0.211,0.255,0.328,0.369c0.023,0.023,0.04,0.05,0.064,0.072
								l7.422,6.826c0.712,0.654,1.707,0.96,2.633,0.868l15.664-1.679l-0.351,9.734c-0.024,0.656,0.102,1.308,0.368,1.908
								l21.188,47.762l-10.961,4.153c-3.293-8.351-6.457-16.048-7.734-18.169c-1.152-1.914-4.58-7.604-29.783,3.557
								c-10.805-23.819-16.465-42.5-16.523-42.693c-0.088-0.291-0.206-0.573-0.352-0.839
								C324.792,543.684,320.144,533.602,319.046,529.113z M319.984,521.998c1.738-7.384,4.58-18.379,4.929-19.728
								c2.739-0.148,5.525-0.294,8.356-0.438l1.338,17.207C331.637,519.554,326.606,520.498,319.984,521.998z M511.852,554.876
								c-1.854-0.086-3.426,1.347-3.511,3.202l-0.608,13.172l-1.391,23.221c-4.808-0.057-12.606-0.56-17.601-0.928l-0.408-6.989
								c9.863-0.272,10.751-1.784,11.421-2.922c1.263-2.142,1.917-12.302,1.948-30.22l39.087,0.24
								c-0.647,1.393-1.484,3.197-2.567,5.532c-4.547,9.798-1.154,35.571-0.018,43.181l-4.591,0.502
								c-0.096,0.006-0.188,0.017-0.279,0.03l-50.429,5.515c-3.715-7.656-7.219-14.864-10.44-21.481l9.228,1.223l0.507,8.709
								c0.097,1.673,1.413,3.019,3.084,3.154c0.76,0.061,18.685,1.499,24.451,1.109c1.725-0.124,3.026-1.465,3.127-3.152
								l1.58-26.369l0.61-13.218C515.14,556.533,513.706,554.961,511.852,554.876z M632.942,472.589l5.085,18.823
								c0.058,0.216,0.138,0.425,0.237,0.625l3.093,6.196l-11.001,3.42c-2.094-15.709-3.889-28.845-4.397-32.552l5.173-10.173
								l8.262,4.771l-5.596,5.649C632.956,470.198,632.63,471.432,632.942,472.589z M618.94,567.292l40.641-10.775l3.192,13.488
								l-84.421,27.612c-3.167-6.529-5.706-12.547-7.722-17.838L618.94,567.292z M568.331,573.432
								c-3.438-10.023-4.641-16.208-4.663-16.327c-0.062-0.335-0.146-0.665-0.252-0.988c-0.12-0.368-0.247-0.75-0.371-1.126
								l65.17-17.865c0.418,3.287,0.82,6.484,1.196,9.52c0.582,4.698,1.52,7.998,2.432,10.272l-14.605,3.872L568.331,573.432z
								 M638.409,555.178c-0.715-1.549-1.721-4.447-2.328-9.357c-0.413-3.334-0.857-6.86-1.32-10.489l16.468-4.514l4.527-1.294
								l3.595,20.102L638.409,555.178z M649.417,524.346l-15.519,4.254c-0.864-6.692-1.767-13.572-2.643-20.189l13.144-4.086
								l9.374,18.776L649.417,524.346z M627.354,530.394l-66.437,18.212c-0.095-0.281-0.187-0.556-0.283-0.841
								c-2.544-7.57-5.487-16.336-8.24-25.705l72.301-11.998C625.579,516.746,626.488,523.676,627.354,530.394z M562.341,599.726
								l-17.449,1.908c-1.483-9.841-3.946-32.352-0.573-39.62l2.839-6.119c0.529,1.579,1.036,3.103,1.512,4.551
								C549.299,563.546,552.686,578.77,562.341,599.726z M566.335,607.981c2.295,4.53,4.864,9.26,7.742,14.142
								c14.522,24.631,18.407,42.335,19.399,48.707c-28.301,16.838-48.023,26.009-64.58,33.066
								c-14.248-29.869-29.144-60.74-41.986-87.229l44.273-4.841l22.825,55.463c0.742,1.805,2.566,2.837,4.412,2.657
								c0.411-0.04,0.825-0.14,1.227-0.306c2.206-0.908,3.259-3.433,2.35-5.64l-21.874-53.152L566.335,607.981z M546.449,901.374
								l1.888,9.717c-14.078,3.59-28.025,6.824-38.586,8.568c-2.9,0.479-5.597,1.02-8.136,1.611l-0.694-9.111L546.449,901.374z
								 M500.257,903.436l-0.872-11.435l43.384-9.577l2.031,10.46L500.257,903.436z M541.314,829.615
								c2.823-1.316,5.321-2.443,7.24-3.298l17.529,42.111l-16.522,3.647L541.314,829.615z M569.456,876.533l3.982,9.568
								l-20.223,4.791l-2.007-10.33L569.456,876.533z M580.377,893.337c1.233-0.293,2.276-1.111,2.852-2.24
								c0.576-1.129,0.627-2.454,0.14-3.623l-28.529-68.537c-0.443-1.063-1.291-1.905-2.357-2.34
								c-1.066-0.434-2.262-0.426-3.322,0.024c-0.391,0.166-4.949,2.111-11.138,4.987l-3.204-7.426
								c9.475-4.095,18.614-7.757,23.997-9.875c4.385,9.814,7.755,17.673,9.748,22.854c8.4,21.839,20.172,46.241,30.559,67.773
								c0.304,0.63,0.608,1.26,0.911,1.888c-9.603,2.818-26.069,7.557-43.318,12.098l-1.853-9.539L580.377,893.337z
								 M556.309,761.943c-6.375-13.686-13.441-28.67-20.804-44.165c9.626-4.11,20.302-8.927,33.015-15.469l12.314,31.578
								c0.652,1.674,2.184,2.842,3.969,3.03l16.547,1.743c-0.364,0.08-0.726,0.191-1.073,0.372L556.309,761.943z M568.554,788.525
								c-2.637-5.807-5.52-12.085-8.601-18.737l18.025-9.392l2.899,5.061c1.186,2.071,3.826,2.788,5.896,1.602
								c2.071-1.185,2.787-3.825,1.602-5.896l-2.728-4.763l18.625-9.704c2.116-1.102,2.937-3.712,1.835-5.828
								c-0.465-0.892-1.204-1.537-2.054-1.921l29.779,3.137L568.554,788.525z M598.609,728.718l26.691-17.183l8.375,20.877
								L598.609,728.718z M587.824,725.385l-10.754-27.576c10.169-5.469,21.587-12.017,34.672-20.075l10.282,25.634L587.824,725.385
								z M420.217,655.263l-30.787,10.572c-3.247-4.011-6.731-8.476-10.462-13.471c-5.662-7.58-11.165-15.97-16.469-25.104
								l16.238-6.152c2.314,5.984,4.624,12.062,6.48,17.011c0.407,1.086,1.234,1.964,2.296,2.433
								c1.062,0.471,2.267,0.493,3.346,0.064l41.335-16.431c2.217-0.881,3.3-3.393,2.418-5.611s-3.397-3.302-5.61-2.419
								l-37.248,14.806c-1.224-3.238-3-7.909-4.935-12.917l15.153-5.741c1.11-0.421,1.999-1.28,2.456-2.375
								c0.457-1.096,0.443-2.331-0.037-3.417l-22.636-51.024l0.346-9.589l47.302-0.345c0.008,0.255,0.031,0.513,0.087,0.772
								l4.406,20.433l-10.902,1.303c-0.05,0.005-0.101,0.011-0.151,0.018l-18.411,2.202l-11.174-21.467
								c-1.102-2.117-3.712-2.938-5.828-1.838c-2.117,1.101-2.939,3.71-1.838,5.827l12.553,24.117
								c0.831,1.594,2.603,2.504,4.345,2.295l17.849-2.135l5.69,18.809l-15.882,7.016c-2.183,0.964-3.17,3.515-2.206,5.698
								c0.965,2.183,3.517,3.168,5.698,2.206l19.378-8.56c1.996-0.882,3.022-3.114,2.389-5.203l-6.355-21.007l6.672-0.798
								l8.498,39.411l-5.072,1.143c-1.28,0.289-2.361,1.145-2.936,2.325c-0.574,1.181-0.58,2.559-0.016,3.745L484.6,723.667
								c-1.078,0.577-2.152,1.148-3.254,1.76c-3.421,1.903-6.974,3.903-10.642,5.976l-45.397-74.307
								C424.252,655.368,422.141,654.604,420.217,655.263z M425.245,673.567l-18.365,12.255c-3.364-3.56-7.205-7.776-11.549-12.878
								l24.412-8.383L425.245,673.567z M383.893,499.949c20.114-0.394,38.165-0.173,49.237,1.216
								c-0.498,6.91-0.557,13.155-0.339,18.718l-49.753,4.374l1.055-22.852C384.116,500.896,384.035,500.41,383.893,499.949z
								 M433.026,524.348c0.391,5.668,1.057,10.491,1.785,14.446l-52.462,0.383l0.473-10.239L433.026,524.348z M477.777,689.196
								l22.214-10.056c4.902,10.204,9.838,20.507,14.698,30.693c-7.759,3.222-14.961,6.275-22.393,9.901L477.777,689.196z
								 M496.247,671.35l-22.18,10.041l-27.744-58.353l3.976-0.896c2.313-0.521,3.773-2.808,3.274-5.125l-13.052-60.527
								C447.522,570.806,471.07,619.019,496.247,671.35z M437.626,470.605c-0.457,2.339-0.939,4.815-1.44,7.45
								c-1.103,5.796-1.903,11.28-2.46,16.442c-19.917-2.398-59.146-1.39-94.089,0.27l0.752-25.175l0.52-11.279l12.308-66.616
								l71.501,14.486c8.18,12.391,12.631,20.483,14.83,27.466C442.811,444.007,441.078,452.896,437.626,470.605z M375.589,500.143
								c-0.07,0.278-0.114,0.566-0.128,0.863l-1.773,38.405l-0.009,0.242l-15.113,1.62l-4.972-4.573l5.723-36.029
								C364.778,500.466,370.229,500.287,375.589,500.143z M352.471,500.944l-4.509,28.383l-6.524-9.131l-1.453-18.694
								C344.102,501.305,348.278,501.118,352.471,500.944z M369.024,597.198c1.24,2.545,3.742,8.673,6.573,15.86l-17.382,6.586
								c-2.863-5.256-5.663-10.732-8.393-16.418C357.911,599.72,366.062,597.156,369.024,597.198z M372.046,657.536
								c3.599,4.819,6.973,9.155,10.131,13.073l-33.485,33.603l-6.017-5.695c-0.024-0.023-0.049-0.047-0.074-0.07l-14.168-13.41
								l6.685-8.769c0.785-1.03,0.611-2.497-0.393-3.316l-7.284-5.936l28.174-34.41
								C360.907,641.641,366.395,649.972,372.046,657.536z M333.695,701.914l-16.54,19.11l-8.96-9.441l14.97-19.636L333.695,701.914
								z M329.892,675.205l-4.965,6.513l-5.365-5.078l4.839-5.91L329.892,675.205z M319.658,688.629l-14.811,19.427L289.323,691.7
								l2.579-9.078l9.908-10.885L319.658,688.629z M286.402,678.682c-0.35,0.384-0.605,0.844-0.747,1.343l-1.708,6.009
								l-7.731-8.146L291.31,661.8l3.902,3.694l1.615,1.734L286.402,678.682z M282.391,706.71l13.022,13.721l-7.294,9.568
								c-4.903-4.753-9.791-9.575-14.578-14.346L282.391,706.71z M298.761,723.958l9.962,10.497
								c0.249,0.594,0.619,1.147,1.139,1.597c0.294,0.255,0.618,0.445,0.952,0.607l23.289,24.538c-1.487,2.33-2.21,4.941-2.41,7.623
								c-11.861-9.071-25.944-21.859-40.097-35.463L298.761,723.958z M323.131,727.322l16.845-19.463l5.834,5.522
								c1.702,1.611,4.376,1.571,6.031-0.089l35.859-35.985c8.548,10.13,15.243,16.948,20.275,22.072
								c7.626,7.765,10.032,10.381,9.878,13.713l-0.202,4.369c-16.315,3.205-52.641,21.77-71.571,34.04L323.131,727.322z
								 M347.023,769.559c2.495-2.346,10.516-7.376,20.531-13.004l11.982,21.029c-10.937,3.823-20.114,5.617-26.029,4.083
								c-0.636-0.188-1.253-0.381-1.848-0.583c-0.591-0.214-1.2-0.457-1.831-0.731C347.814,776.098,346.522,771.276,347.023,769.559
								z M371.751,754.226c18.071-9.905,40.633-20.737,49.673-21.839c3.52,3.509,9.797,9.851,15.964,17.692
								c-18.022,9.851-37.197,19.684-53.282,25.831L371.751,754.226z M431.685,720.925l-0.856-0.852
								c-1.233-1.232-2.748-2.098-4.529-2.6l0.184-3.982c0.334-7.255-4.169-11.841-12.344-20.165
								c-0.379-0.385-0.766-0.78-1.163-1.184l16.775-11.195l33.428,54.715c-3.876,2.195-7.95,4.5-12.161,6.861
								C443.633,732.823,435.95,725.169,431.685,720.925z M471.945,748.351c5.947-3.368,11.565-6.55,16.867-9.499
								c11.135-6.193,21.15-10.427,32.491-15.133c3.872,8.147,7.663,16.151,11.313,23.896l-64.733,26.283
								c-1.891-6.488-4.821-12.755-8.249-18.61C463.672,753.027,467.776,750.712,471.945,748.351z M534.664,751.964
								c2.765,5.88,5.442,11.594,8.001,17.089l-29.085,15.155l-4.371-11.656c-0.838-2.235-3.327-3.368-5.561-2.529
								c-2.235,0.838-3.366,3.328-2.529,5.562l6.085,16.227c0.434,1.158,1.344,2.074,2.5,2.517c0.632,0.242,1.305,0.33,1.964,0.265
								c0.545-0.053,1.081-0.21,1.577-0.469l33.064-17.229c3.231,6.976,6.236,13.522,8.954,19.517
								c-9.898,3.893-31.204,12.5-45.608,19.955c-6.772,3.506-23.89,5.337-34.676,6.072c-2.023-18.782-4.223-35.43-5.859-43.549
								c-0.02-0.097-0.045-0.193-0.065-0.29L534.664,751.964z M541.121,873.939l-42.398,9.361l-2.491-32.68
								c4.676-1.153,12.977-3.787,22.626-9.468c4.441-2.614,9.539-5.274,14.404-7.677L541.121,873.939z M612.959,888.259
								c-10.258-21.264-21.884-45.364-30.058-66.613c-2.178-5.663-5.896-14.311-10.725-25.093l72.332-51.462
								c0.637-0.453,1.11-1.058,1.418-1.733l11.539,1.216l2.236,96.16l-31.632,7.752c-2.318,0.568-3.736,2.907-3.168,5.224
								c0.568,2.318,2.911,3.736,5.224,3.168l29.781-7.298l0.755,32.436l-45.548,10.713
								C614.406,891.259,613.688,889.769,612.959,888.259z M643.395,733.436l-3.964-9.881l16.08-7.004
								c2.188-0.953,3.189-3.498,2.236-5.686c-0.952-2.188-3.499-3.189-5.685-2.236l-15.848,6.902l-17.024-42.439
								c11.076-6.969,23.287-14.971,36.849-24.23l17.181,32.662l7.502,33.363c0.013,0.064,0.026,0.126,0.042,0.188l5.135,22.837
								L643.395,733.436z M703.413,815.724c5.827-13.44,11.641-32.883,11.527-65.096l29.083,3.064l0.399,60.958L703.413,815.724z
								 M745.267,823.271l1.157,25.834l-54.395,1.882c0.301-7.095,1.225-14.131,3.337-18.649c0.737-1.576,1.617-3.31,2.548-5.145
								c0.446-0.876,0.904-1.78,1.374-2.717L745.267,823.271z M711.243,740.584c-0.129-0.021-0.261-0.032-0.394-0.042l-15.878-1.673
								l-4.664-20.74l20.279-0.852l2.97,23.55L711.243,740.584z M782.509,955.273c-26.491,1.323-58.928,3.087-86.638,5.015
								l-0.814-39.526c0-0.04-0.002-0.082-0.003-0.122l-1.482-30.31l13.883-1.6l-2.288,41.004c-0.133,2.382,1.691,4.421,4.073,4.554
								c0.225,0.013,0.447,0.008,0.665-0.013c2.086-0.203,3.769-1.903,3.889-4.06l2.371-42.489l19.661-2.266l-0.476,22.675
								c-0.05,2.385,1.843,4.36,4.228,4.41c0.175,0.004,0.346-0.004,0.516-0.02c2.148-0.21,3.848-1.998,3.895-4.208l0.501-23.855
								l22.852-2.634l1.541,52.399c0.07,2.385,2.06,4.261,4.445,4.191c0.1-0.002,0.199-0.009,0.297-0.019
								c2.241-0.219,3.961-2.141,3.894-4.427l-1.562-53.138l10.043-1.158L782.509,955.273z M787.75,841.733
								c-0.001,0.016-0.002,0.032-0.003,0.048c0,0.015-0.001,0.03-0.002,0.046l-1.047,22.679c-0.763-0.153-1.559-0.195-2.368-0.101
								l-91.511,10.548l-0.089-1.829c-0.005-0.086-0.011-0.173-0.021-0.259c-0.315-2.878-0.673-7.734-0.771-13.23l59.148-2.046
								c1.148-0.039,2.241-0.54,3.024-1.387c0.782-0.847,1.193-1.972,1.142-3.125l-1.347-30.033l34.748-0.911L787.75,841.733z
								 M790.191,788.853c-0.004,0.058-0.007,0.115-0.008,0.172l-1.13,24.455l-10.589,0.278l0.118-56.425l12.999,1.37
								L790.191,788.853z M808.211,847.05l-0.144,106.989c-5.102,0.238-10.779,0.508-16.888,0.806l5.001-108.35L808.211,847.05z
								 M833.884,794.034l-34.901-8.278l1.207-26.147l34.287,3.612L833.884,794.034z M818.707,622.579l16.008,128.335l-0.051,2.672
								l-19.553-2.06c0.345-0.643,0.54-1.377,0.518-2.158l-3.538-125.42C814.291,623.421,816.51,622.969,818.707,622.579z
								 M800.755,627.522c0.9-0.371,1.825-0.717,2.761-1.052l3.474,123.142c0.011,0.377,0.085,0.733,0.185,1.079l-6.548-0.69
								c0-0.029,0.002-0.058,0.002-0.087c0-0.006,0-0.011,0-0.017c-0.001-0.083-0.006-0.165-0.012-0.246l-7.838-119.538
								C795.531,629.426,798.203,628.572,800.755,627.522z M784.225,631.714l7.696,117.37l-26.949-2.839
								c0.161-0.479,0.24-0.994,0.221-1.529l-3.99-112.43C768.657,632.729,776.58,632.716,784.225,631.714z M769.944,756.423
								l-0.12,57.561l-16.438,0.431c-0.084-0.278-0.194-0.544-0.33-0.795l-0.387-59.017L769.944,756.423z M756.557,745.023
								c0.004,0.116,0.032,0.226,0.045,0.34l-34.221-3.605l-3.132-24.844l14.741-0.62c0.055-0.001,0.111-0.003,0.166-0.007
								l21.35-0.897L756.557,745.023z M729.943,628.504c1.768,0.215,3.986,0.548,6.553,0.935c4.413,0.664,9.929,1.491,16.035,2.129
								l2.668,75.186l-18.266,0.768c-4.182-12.255-19.551-58.017-20.44-71.169c-0.098-1.451-0.228-2.841-0.38-4.183
								C717.518,630.787,721.789,627.51,729.943,628.504z M727.93,707.901l-39.55,1.661l-6.856-30.489
								c-0.04-0.175-0.089-0.346-0.15-0.515l33.253-12.436C719.235,681.954,724.996,699.256,727.93,707.901z M712.277,657.776
								l-34.918,13.058l-14.148-26.897c7.69-5.314,15.792-11.014,24.351-17.142c4.762-3.409,10.131-6.79,15.972-10.124
								c1.724,4.218,3.705,10.885,4.337,20.264C708.174,641.419,709.907,649.038,712.277,657.776z M688.966,568.688l14.975,30.24
								c-9.429,4.999-18.008,10.141-25.322,15.378c-28.334,20.288-51.602,35.827-71.153,48.001
								c-2.279-10.001-7.629-26.737-20.158-47.987c-1.789-3.035-3.449-6.008-4.994-8.909l95.333-31.182
								c0.089-0.029,0.177-0.061,0.265-0.096C680.452,573.116,684.238,571.233,688.966,568.688z M678.678,522.974l7.803,37.255
								c-5.048,2.754-9.053,4.778-11.658,5.835l-5.389,1.763l-7.183-40.159L678.678,522.974z M677.296,516.379l-16.949,4.844
								l-9.445-18.919l8.814-2.74c1.35-0.42,2.294-1.641,2.359-3.054l0.457-9.908l7.85-3.237L677.296,516.379z M664.829,478.385
								l-6.837,2.819c-1.206,0.498-2.015,1.648-2.076,2.952l-0.447,9.689l-7.609,2.366l-3.433-6.876l-4.493-16.632l5.479-5.53
								L664.829,478.385z M647.276,358.886l55.434,5.8l-0.156,3.253l-9.336,67.179c-3.431-0.386-6.655-0.761-9.446-1.086
								c-5.456-0.635-11.218-1.735-17.019-3.117c1.628-6.234,3.857-17.051,1.239-21.772c-1.015-1.83-2.459-2.553-3.492-2.838
								c-4.56-1.256-18.327-1.786-25.306-1.979L647.276,358.886z M618.572,350.498l22.149,6.865l-8.83,49.644
								c-0.172,0.968,0.089,1.964,0.714,2.723c0.624,0.76,1.551,1.207,2.535,1.225c8.658,0.154,22.664,0.733,27.102,1.713
								c0.78,2.059-0.121,9.269-2.008,16.586c-20.464-5.555-40.179-13.878-47.483-17.376L618.572,350.498z M612.078,418.979
								c8.603,3.926,26.563,11.264,45.375,16.465l-12.621,21.415l-34.459-19.899L612.078,418.979z M548.221,410.213
								c20.695,1.31,49.424,3.929,59.219,6.83l-1.788,18.853c-7.572-0.547-32.805-2.37-59.532-4.323
								C546.791,424.934,547.499,417.714,548.221,410.213z M543.445,456.459c0.523-4.385,1.131-9.935,1.793-16.286
								c28.449,2.079,55.281,4.016,61.098,4.435l18.969,10.954l-4.804,9.447l-77.368-5.367
								C543.22,458.573,543.32,457.51,543.445,456.459z M619.53,471.678c0.715,5.232,2.383,17.48,4.28,31.719l-73.264,12.158
								c-4.383-15.995-7.852-33.291-7.701-49.196L619.53,471.678z M544.161,546.952l-45.798-0.282
								c-0.901-0.005-1.758,0.347-2.392,0.98c-0.635,0.632-0.991,1.492-0.989,2.388c0.028,11.609-0.322,25.186-0.944,29.427
								c-3.684,0.603-14.619,0.403-25.302-0.197c-8.846-18.158-14.935-30.592-16.351-33.482c-0.198-0.551-0.755-2.203-1.405-4.875
								l89.613-4.913C541.8,539.812,543.003,543.475,544.161,546.952z M538.544,529.38l-88.906,4.875
								c-1.447-8.798-2.502-22.368-0.402-40.111l80.697-0.169C532.02,506.218,535.199,518.294,538.544,529.38z M506.732,391.956
								l23.186,5.09l3.766,3.829c-0.993,10.446-1.978,20.568-2.889,29.576c-11.826-0.868-23.328-1.718-33.118-2.45L506.732,391.956z
								 M495.54,436.506c10.048,0.753,22.034,1.639,34.371,2.545c-0.634,6.066-1.216,11.375-1.719,15.589
								c-0.322,2.698-0.519,5.439-0.625,8.206l-37.271-5.467L495.54,436.506z M527.501,469.629
								c0.107,5.817,0.606,11.722,1.403,17.628l-45.935,0.096l6.956-23.236L527.501,469.629z M488.738,435.993l-12.907,51.374
								l-25.673,0.054c0.329-2.116,0.697-4.277,1.119-6.496c0.496-2.61,0.975-5.063,1.427-7.381
								c3.082-15.811,4.884-26.046,3.456-36.171c3.608-1.692,8.544-3.373,13.274-2.909
								C471.665,434.681,478.805,435.241,488.738,435.993z M450.626,364.04l35.905,3.375l-8.877,29.838l-27.693-4.763
								C451.847,384.132,451.157,370.812,450.626,364.04z M447.315,398.854l21.025,3.616l-5.682,23.762
								c-3.093,0.556-5.991,1.527-8.489,2.58c-2.253-6.987-6.184-14.605-12.37-24.462
								C443.743,403.067,445.698,401.294,447.315,398.854z M414.958,360.687l28.875,2.714c0.861,10.126,1.173,25.314-1.295,30.272
								c-1.157,2.324-2.772,3.913-4.38,5.008c-4.83-7.372-10.767-15.935-18.01-26.225c-1.935-2.749-3.807-5.402-5.617-7.963
								L414.958,360.687z M378.326,355.042c4.604,0.949,8.957,1.836,12.456,2.545c4.975,6.967,10.556,14.835,16.804,23.711
								c4.474,6.357,8.382,11.958,11.797,16.956l-47.397-9.604L378.326,355.042z M349.266,348.742
								c4.406,1.123,14.458,3.27,24.358,5.327l-6.342,33.627l-26.268-5.323C343.586,368.362,347.112,353.203,349.266,348.742z
								 M292.611,457.996c3.807-11.187,6.933-25.25,10.242-40.139c2.422-10.9,5.048-22.715,8.249-34.694l35.527,7.198l-12.37,66.956
								c-0.028,0.151-0.045,0.302-0.052,0.455l-0.533,11.563l-0.77,25.761c-25.241,1.276-47.323,2.807-56.819,3.496
								C282.299,484.845,288.42,470.31,292.611,457.996z M271.068,509.495l2.461-3.975c5.174-0.38,21.594-1.557,42.332-2.747
								c-1.331,5.185-4.105,16.112-5.24,21.473c-1.31,0.332-2.653,0.678-4.037,1.044c-12.538,3.317-32.171,0.59-42.452-1.259
								C266.307,519.555,268.656,514.65,271.068,509.495z M259.603,533.247c0.469-0.945,0.953-1.922,1.454-2.936
								c10.103,1.931,32.482,5.383,47.245,1.477c0.837-0.221,1.657-0.434,2.467-0.643c1.002,4.171,3.193,9.41,5.475,14.222
								l-29.095-1.343c-0.398-0.217-0.796-0.431-1.188-0.641c-5.451-2.905-12.038-5.428-19.578-7.5
								c-2.997-0.824-5.193-1.375-6.824-1.725L259.603,533.247z M234.761,576.741l48.834,31.567c0.642,0.414,1.4,0.595,2.151,0.522
								c0.185-0.018,0.369-0.052,0.551-0.1c0.919-0.248,1.689-0.875,2.12-1.725l9.537-18.813c0.839-1.655,0.177-3.677-1.478-4.516
								c-1.655-0.839-3.677-0.177-4.516,1.478l-7.851,15.485l-45.846-29.636c2.406-3.953,4.585-7.552,6.466-10.671l42.115,25.576
								c0.646,0.391,1.37,0.54,2.068,0.472c1.017-0.099,1.977-0.66,2.548-1.6c0.963-1.586,0.459-3.653-1.128-4.617l-42.139-25.591
								c2.195-3.658,3.574-5.978,3.874-6.483c0.075-0.124,0.144-0.25,0.211-0.378c0.241-0.464,1.623-3.127,3.762-7.358
								c2.36,0.448,12.2,2.461,21.673,6.533c-0.002,0.024-0.004,0.048-0.004,0.073l-0.558,12.591
								c-0.064,1.434,0.79,2.749,2.125,3.275c4.656,1.834,26.86,10.306,37.113,9.331l14.85,10.348
								c2.377,5.882,5.181,12.446,8.417,19.429c3.667,7.914,7.469,15.462,11.389,22.613l-37.779,46.14l-20.202-19.12
								c-0.77-0.729-1.739-1.1-2.721-1.156l-0.47-0.505c-0.057-0.061-0.116-0.12-0.177-0.177c-0.477-0.441-9.972-9.16-20.701-14.877
								c2.03-2.584,3.053-5.177,3.045-7.733c-0.013-4.228-2.749-6.907-4.064-8.194c-0.137-0.134-0.258-0.249-0.347-0.346
								c-1.528-1.677-4.09-2.701-6.687-2.672c-2.111,0.021-5.228,0.743-8.088,4.026c-2.103,2.412-2.818,5.471-2.013,8.612
								c1.067,4.164,4.659,7.924,9.153,9.577c11.369,4.183,23.896,15.411,25.055,16.464l0.805,0.865
								c0.154,0.883,0.57,1.728,1.271,2.392l0.697,0.66l-14.918,15.901l-26.484-27.905l-2.545-47.942
								c-0.002-0.043-0.015-0.083-0.019-0.125c-0.009-0.083-0.021-0.165-0.038-0.246c-0.016-0.077-0.036-0.151-0.059-0.224
								c-0.023-0.073-0.049-0.144-0.079-0.214c-0.031-0.073-0.065-0.144-0.103-0.213c-0.037-0.067-0.077-0.131-0.12-0.195
								c-0.043-0.063-0.088-0.124-0.136-0.182c-0.05-0.061-0.103-0.118-0.16-0.174c-0.055-0.054-0.111-0.104-0.17-0.153
								c-0.059-0.048-0.12-0.094-0.185-0.137c-0.07-0.047-0.143-0.089-0.219-0.128c-0.037-0.019-0.068-0.045-0.106-0.062
								l-15.497-7.12C229.708,584.981,232.319,580.734,234.761,576.741z M265.321,627.139c0.005,1.312-0.923,2.963-2.688,4.792
								c-0.107-0.039-0.211-0.079-0.318-0.118c-2.366-0.871-4.453-2.947-4.963-4.937c-0.333-1.3,0.165-2.066,0.569-2.53
								c0.904-1.038,1.857-1.611,2.836-1.707c0.047-0.005,0.094-0.008,0.141-0.01c0.98-0.049,1.665,0.383,1.767,0.476
								c0.159,0.175,0.368,0.382,0.611,0.62C264.352,624.778,265.317,625.832,265.321,627.139z M224.435,593.492l14.724,6.765
								l2.169,40.873l-3.208-3.38c-0.056-0.059-0.118-0.11-0.176-0.167c0.8-0.995,0.691-2.449-0.278-3.3l-25.024-22.029
								C216.646,605.964,220.626,599.62,224.435,593.492z M189.337,647.503c6.257-8.924,13.454-19.847,20.694-31.155l21.657,19.066
								c-1.676,0.189-3.257,0.92-4.482,2.107l-19.816,19.195C201.598,653.411,195.539,650.347,189.337,647.503z M220.759,665.152
								l11.561-11.199l21.196,22.333l-10.134,8.882c-2.233-2.266-4.409-4.471-6.507-6.588
								C232.096,673.758,226.658,669.296,220.759,665.152z M235.185,698.737c0.818,0.831,1.649,1.676,2.481,2.522
								c-2.912,2.88-5.844,5.659-8.615,8.088c-1.94,1.702-3.893,3.74-5.835,6.024c-1.534-0.974-2.927-1.86-4.063-2.583
								L235.185,698.737z M225.534,724.797c3.596,2.274,7.13,4.495,9.381,5.88c3.661,2.251,6.789,2.1,8.762,1.576
								c3.371-0.893,5.578-3.338,6.646-4.816l9.627-3.679c0.325,0.325,0.646,0.643,0.971,0.967l-24.236,32.292L212.88,745.13
								c-0.013-0.006-0.026-0.009-0.039-0.015C216.827,737.799,221.175,730.662,225.534,724.797z M191.575,797.104
								c0.123-0.282,0.215-0.579,0.268-0.889c0.011-0.067,1.217-6.894,7.433-22.443c2.732-6.835,6.712-15.614,11.317-24.439
								c0.049,0.029,0.091,0.064,0.142,0.09l23.02,11.497l-1.99,2.652c-0.708,0.944-0.999,2.137-0.807,3.301
								c0.193,1.163,0.855,2.198,1.83,2.862l5.581,3.803c-0.469,0.487-0.734,1.161-0.658,1.889l3.086,29.324L191.575,797.104z
								 M254.377,806.862l-8.673-1.348l-3.059-29.062l16.116,10.981L254.377,806.862z M241.391,765.142l25.718-34.266
								c3.957,3.915,7.842,7.72,11.649,11.403l-13.585,17.819c-0.775,1.017-0.617,2.462,0.36,3.288l5.231,4.42l-4.513,6.437
								c-0.026,0.036-0.052,0.073-0.078,0.11l-3.64,5.194L241.391,765.142z M308.027,815.198l-45.093-7.007l4.715-20.89l3.206-4.573
								l43.727,29.354L308.027,815.198z M323.657,807.766l-47.84-32.116l6.165-8.794l6.978,5.342
								c1.895,1.451,4.607,1.092,6.057-0.805c1.451-1.895,1.09-4.606-0.805-6.057l-10.555-8.08c-0.934-0.715-2.107-1.02-3.285-0.839
								c-1.164,0.179-2.203,0.826-2.879,1.79l-3.962,5.652l-3.156-2.667l11.864-15.562c23.077,22.13,43.058,39.283,57.955,47.067
								c0.004,0.002,0.008,0.005,0.012,0.008c2.619,1.576,5.306,2.578,7.972,3.4L323.657,807.766z M311.537,867.305l31.809-9.485
								c-2.15,9.721-5.92,20.661-12.211,32.393c-0.462,0.862-0.942,1.706-1.442,2.535L311.537,867.305z M323.95,913.117
								c3.375-3.093,6.397-6.391,9.046-9.88c0.184-0.203,0.345-0.419,0.485-0.646c1.97-2.656,3.727-5.422,5.267-8.294
								c23.994-44.744,14.603-79.152,10.846-89.297l10.323-4.909c2.695,1.531,4.807,3.805,6.452,7.944
								c6.2,15.602,19.965,73.546,23.673,107.689c0.002,0.018,0.005,0.036,0.007,0.054l-10.901,0.237l-12.033-101.945
								c-0.28-2.369-2.456-4.083-4.797-3.784c-2.37,0.279-4.065,2.427-3.784,4.797l11.936,101.121l-46.759,1.018
								C323.625,915.682,323.699,914.315,323.95,913.117z M386.975,972.874l-1.136-0.185l-5.672-48.053l12.024-0.261
								c1.269,3.173,3.042,6.108,5.299,8.772c-4.715,1.99-8.363,5.224-8.818,10.506
								C388.124,947.868,386.719,960.115,386.975,972.874z M257.247,941.949c3.333-0.571,6.777-1.242,10.293-2.031
								c19.15-4.298,35.222-11.015,47.773-19.865c0.074,0.607,0.164,1.227,0.269,1.86c0.02,0.316,0.076,0.623,0.16,0.916
								c1.275,6.921,4.231,15.389,8.305,26.056l-67.427,6.666L257.247,941.949z M327.267,957.249
								c5.368,14.528,4.901,25.434,4.163,30.587c-5.087-0.349-9.765-0.265-14.064,0.155c-2.944,0.287-5.71,0.731-8.304,1.302
								l-2.343-30.013L327.267,957.249z M254.668,997.842l1.549-33.569l4.005-0.396l0.512,34.245L254.668,997.842z M269.382,998.521
								l-0.531-35.497l29.266-2.893l2.471,31.656c-5.607,2.101-10.173,4.784-13.828,7.537L269.382,998.521z M356.42,1018.598
								c-12.5,3.859-25.426,7.847-36.911,9.683c-14.869,2.379-27.609-1.191-40.871-5.305c0.896-2.258,4.109-9.242,11.66-15.511
								c0.397-0.227,0.756-0.516,1.062-0.853c3.802-2.961,8.618-5.698,14.662-7.615c0.28-0.057,0.549-0.14,0.804-0.248
								c7.318-2.19,16.39-3.184,27.583-1.975c2.023,0.215,3.931-1.008,4.567-2.945c0.21-0.638,4.801-15.134-2.849-37.455
								l1.259-0.125c2.375-0.234,4.109-2.35,3.874-4.724c-0.234-2.373-2.347-4.106-4.719-3.875c-0.002,0-0.004,0-0.006,0.001
								l-3.571,0.353c-3.419-8.888-6.099-16.248-7.684-22.174l46.208-1.005l6.151,52.111c0.226,1.915,1.693,3.448,3.595,3.758
								l6.216,1.014c0.832,9.033,2.816,17.44,6.893,22.441c1.203,1.477,2.387,2.824,3.546,4.079
								C384.812,1009.838,370.512,1014.249,356.42,1018.598z M380.646,802.362c-1.215-3.059-2.653-5.608-4.237-7.758
								c18.753-5.185,42.479-16.903,69.765-31.853c3.645,6.141,6.577,12.673,7.887,19.176c0.963,4.778,2.259,13.522,3.642,24.668
								l-15.288,3.536l-1.406-11.387c-0.292-2.368-2.463-4.022-4.817-3.758c-2.368,0.292-4.051,2.449-3.759,4.817l1.994,16.148
								c0.151,1.215,0.809,2.309,1.812,3.011c0.848,0.594,1.876,0.859,2.895,0.76c0.186-0.018,0.37-0.048,0.555-0.091l19.044-4.405
								c1.439,12.481,2.905,27.061,4.137,42.104c1.864,22.751,2.515,38.48,2.544,48.917l-60.092,7.885
								c-0.003-0.023-0.007-0.045-0.009-0.067c-0.62-5.709-1.528-12.153-2.641-19.005l49.025-5.209
								c2.373-0.252,4.092-2.38,3.84-4.753c-0.251-2.36-2.358-4.073-4.715-3.843c-0.013,0.001-0.025,0.002-0.038,0.004
								l-49.567,5.267C395.473,854.234,386.15,816.215,380.646,802.362z M465.258,914.981c-0.144,3.197-0.375,5.44-0.638,6.88
								c-5.299,2.074-19.633,6.609-32.958,7.908c-2.136,0.208-3.998,0.303-5.639,0.321c-1.298-0.054-2.585-0.096-3.849-0.116
								c-3.765-0.3-5.661-1.083-6.466-1.538c-3.063-1.732-5.433-3.728-7.146-6.015L465.258,914.981z M455.184,1015.213
								c-2.543,2.995-5.174,6.092-7.487,9.149c-1.192,1.576-2.303,3.134-3.361,4.676c-1.638-2.191-3.268-4.415-4.88-6.674
								c-1.734-2.43-3.641-4.493-5.688-6.258c9.103-3.518,18.965-6.383,24.092-5.731c0.386,0.049,0.812,0.095,1.272,0.139
								C457.891,1012.026,456.552,1013.601,455.184,1015.213z M468.484,995.61c-3.695-0.052-6.681-0.22-8.693-0.475
								c-12.498-1.58-32.789,6.86-41.336,10.764c-2.723-1.808-7.214-5.333-12.205-11.456c-4.519-5.545-4.814-28.499-2.531-47.331
								c2.856-1.177,9.374-1.888,17.767-1.781c1.387,0.095,2.84,0.137,4.361,0.126c7.51,0.326,16.121,1.264,24.794,3.024
								c15.649,3.175,21.718,7.122,22.954,8.566C474.294,967.378,475.08,980.809,468.484,995.61z M475.887,935.697
								c-0.761,1.329-1.255,2.654-1.569,3.933c-1.984-0.89-4.152-1.738-6.549-2.534c7.176-2.552,8.256-3.965,9.092-5.061
								c2.33-3.054,6.668-8.74,1.549-73.128c-0.722-9.087-1.594-18.606-2.531-27.857c10.324-0.694,29.102-2.529,37.749-7.005
								c3.978-2.059,8.554-4.231,13.288-6.373l3.305,7.661c-5.238,2.573-10.831,5.478-15.746,8.372
								c-13.018,7.663-23.317,9.155-23.407,9.167c-2.273,0.301-3.914,2.325-3.74,4.611l5.807,76.197
								C484.475,926.682,478.771,930.655,475.887,935.697z M547.126,982.705c-15.144,7.814-41.616,11.38-61.979,12.505
								c3.996-11.71,4.492-22.412,4.201-31.297c6.426,3.032,14.289,4.101,23.523,3.199c6.289-0.613,13.215-2.14,20.751-4.578
								c34.54-11.176,71.374-18.581,85.951-21.305c0.075,0.309,0.142,0.606,0.194,0.88c0.658,3.466,2.688,12.247,5.48,23.938
								C591.112,969.115,566.705,972.603,547.126,982.705z M634.859,939.244c-0.467-2.456-1.445-5.573-2.835-9.257
								c-0.055-0.161-0.114-0.32-0.179-0.476c-2.339-6.121-5.788-13.774-9.95-22.598l63.11-14.844l1.415,28.93l0.821,39.907
								c-6.349,0.468-12.369,0.943-17.905,1.423c-7.395,0.641-14.444,1.222-21.168,1.775c-2.531,0.208-5.007,0.412-7.446,0.615
								C637.716,952.176,635.524,942.746,634.859,939.244z"/>
						</g>
					</g>
					<g id="Calles_anchas_2_">
						<g>
							<g>
								<path class="st8" d="M546.46,346.053c-0.059,0.657-0.119,1.32-0.179,1.988"/>
								<path class="st9" d="M545.917,352.069c-0.218,2.403-0.441,4.868-0.671,7.384l-6.754,71.233
									c-1.004,9.947-1.924,18.584-2.673,24.863c-0.277,2.324-0.325,4.697-0.566,7.079c-2.784,27.465,12.589,70.82,12.589,70.82
									c3.007,9.516,5.998,18.091,8.274,25.055c4.331,23.412,6.345,22.92,12.746,37.001c0,0,24.967,41.215,30.019,64.097
									c0.89,4.03,1.51,7.2,1.921,9.444"/>
								<path class="st8" d="M601.154,671.041c0.222,1.301,0.316,1.97,0.316,1.97"/>
							</g>
						</g>
					</g>
					<g>
						<g>
							<g>
								<path class="st7" d="M506.657,741.69c-5.957-0.275-11.024-4.327-12.657-9.989l-4.23-0.195l0.411-8.91l4.23,0.195
									c2.148-5.486,7.567-9.056,13.524-8.781c5.955,0.275,11.024,4.329,12.657,9.99l4.232,0.195l-0.411,8.91l-4.232-0.195
									C518.033,738.396,512.612,741.964,506.657,741.69z M506.907,736.278c-3.226-0.149-6.036-2.084-7.336-5.05l-0.846-1.93
									l16.972,0.783l-1.021,1.844C513.11,734.759,510.133,736.427,506.907,736.278z M515.867,726.403l-16.972-0.783l1.02-1.844
									c1.567-2.834,4.544-4.504,7.77-4.355c3.226,0.149,6.036,2.086,7.335,5.052L515.867,726.403z"/>
							</g>
						</g>
						<path class="st10" d="M519.559,725.262c-1.149-5.459-5.851-9.675-11.684-9.944c-5.831-0.269-10.902,3.495-12.55,8.825
							l-3.895-0.18l-0.29,6.294l3.895,0.18c1.148,5.459,5.852,9.675,11.684,9.944c5.833,0.269,10.904-3.495,12.551-8.826l3.896,0.18
							l0.291-6.294L519.559,725.262z M507.624,720.73c2.797,0.129,5.117,1.866,6.174,4.266l-12.715-0.587
							C502.357,722.117,504.828,720.601,507.624,720.73z M506.967,734.971c-2.797-0.129-5.118-1.868-6.174-4.268l12.715,0.587
							C512.236,733.582,509.766,735.1,506.967,734.971z"/>
					</g>
					<g>
						<g>
							<g>
								<path class="st7" d="M406.513,785.926c-5.957-0.275-11.024-4.327-12.657-9.989l-4.23-0.195l0.411-8.91l4.23,0.195
									c2.148-5.486,7.567-9.056,13.524-8.781c5.955,0.275,11.024,4.329,12.657,9.989l4.232,0.195l-0.411,8.91l-4.232-0.195
									C417.888,782.632,412.468,786.2,406.513,785.926z M406.763,780.514c-3.226-0.149-6.036-2.084-7.336-5.05l-0.846-1.93
									l16.972,0.783l-1.021,1.844C412.965,778.995,409.988,780.663,406.763,780.514z M415.723,770.639l-16.972-0.783l1.02-1.844
									c1.567-2.834,4.544-4.504,7.77-4.355c3.226,0.149,6.036,2.086,7.335,5.052L415.723,770.639z"/>
							</g>
						</g>
						<path class="st10" d="M419.414,769.498c-1.149-5.459-5.851-9.674-11.684-9.944c-5.831-0.269-10.902,3.495-12.551,8.825
							l-3.895-0.18l-0.29,6.294l3.895,0.18c1.148,5.459,5.852,9.675,11.684,9.944c5.833,0.269,10.904-3.495,12.551-8.826l3.896,0.18
							l0.29-6.294L419.414,769.498z M407.48,764.966c2.797,0.129,5.117,1.867,6.174,4.266l-12.715-0.587
							C402.213,766.353,404.684,764.837,407.48,764.966z M406.823,779.207c-2.797-0.129-5.118-1.868-6.174-4.268l12.715,0.587
							C412.091,777.818,409.621,779.336,406.823,779.207z"/>
					</g>
					<g>
						<g>
							<g>
								<path class="st7" d="M216.91,549.758c-5.957-0.275-11.024-4.327-12.657-9.989l-4.23-0.195l0.411-8.91l4.23,0.195
									c2.148-5.486,7.567-9.056,13.524-8.781c5.955,0.275,11.024,4.329,12.657,9.99l4.232,0.195l-0.411,8.91l-4.232-0.195
									C228.285,546.465,222.865,550.033,216.91,549.758z M217.16,544.346c-3.226-0.149-6.036-2.084-7.335-5.05l-0.846-1.93
									l16.972,0.783l-1.021,1.844C223.363,542.827,220.385,544.495,217.16,544.346z M226.12,534.471l-16.972-0.783l1.02-1.844
									c1.567-2.834,4.544-4.504,7.77-4.355c3.226,0.149,6.036,2.086,7.335,5.052L226.12,534.471z"/>
							</g>
						</g>
						<path class="st10" d="M229.811,533.33c-1.149-5.459-5.851-9.675-11.684-9.944c-5.831-0.269-10.902,3.495-12.55,8.825
							l-3.895-0.18l-0.29,6.294l3.895,0.18c1.148,5.459,5.852,9.675,11.684,9.944c5.833,0.269,10.904-3.495,12.55-8.826l3.896,0.18
							l0.29-6.294L229.811,533.33z M217.877,528.798c2.797,0.129,5.117,1.867,6.174,4.266l-12.715-0.587
							C212.61,530.185,215.081,528.669,217.877,528.798z M217.22,543.039c-2.797-0.129-5.118-1.868-6.174-4.268l12.715,0.587
							C222.489,541.65,220.019,543.168,217.22,543.039z"/>
					</g>
					<g>
						<polygon class="st7" points="489.351,510.08 484.892,509.874 485.046,506.53 481.703,506.376 481.549,509.72 477.09,509.514 
							476.936,512.858 481.395,513.064 481.086,519.751 484.429,519.906 484.738,513.218 489.197,513.424 						"/>
					</g>
					<g>
						<polygon class="st7" points="677.42,369.194 672.686,368.976 672.85,365.426 669.302,365.262 669.138,368.812 
							664.404,368.593 664.24,372.143 668.974,372.362 668.647,379.461 672.194,379.625 672.522,372.526 677.256,372.744 						"/>
					</g>
					<g>
						<g>
							<path class="st7" d="M554.816,490.807c0.083-1.796,1.097-3.766,2.255-4.963c-2.838,0.818-5.239,3.731-5.382,6.846
								c-0.18,3.909,2.842,7.225,6.752,7.405c2.114,0.098,3.785-0.38,5.151-1.789c-0.725,0.208-1.291,0.257-2.086,0.22
								C557.597,498.346,554.636,494.717,554.816,490.807z"/>
							<polygon class="st7" points="564.277,488.1 566.606,487.009 566.055,489.522 567.813,491.4 565.253,491.653 564.009,493.905 
								562.977,491.548 560.451,491.061 562.375,489.352 562.057,486.799 							"/>
						</g>
					</g>
					<path class="st7" d="M397.222,438.271l-2.231-0.015l0.003-1.592c0.004-2.107-1.518-3.817-5.332-3.824
						c-3.814-0.007-5.089,1.698-5.093,3.805l-0.003,1.543l-2.663-0.017c0,0-1.163,5.655-1.404,9.974
						c-0.439,7.856,17.913,8.002,17.913,0.244C398.411,443.646,397.222,438.271,397.222,438.271z M385.837,438.196l0.003-1.549
						c0.003-1.402,1.276-2.54,3.819-2.536c2.543,0.005,4.066,1.148,4.063,2.55l-0.003,1.586L385.837,438.196z"/>
					
						<ellipse transform="matrix(0.0461 -0.9989 0.9989 0.0461 -51.0795 910.0933)" class="st11" cx="450.992" cy="481.792" rx="12.939" ry="12.939"/>
					
						<rect x="445.173" y="472.988" transform="matrix(0.0461 -0.9989 0.9989 0.0461 -51.6175 911.4713)" class="st12" width="12.547" height="19.55"/>
					<text transform="matrix(0.9989 0.0461 -0.0461 0.9989 445.9795 487.1021)" class="st13 st14 st15">H</text>
					
						<ellipse transform="matrix(0.0461 -0.9989 0.9989 0.0461 -246.7815 804.4202)" class="st11" cx="297.81" cy="531.427" rx="12.939" ry="12.939"/>
					
						<rect x="291.991" y="522.623" transform="matrix(0.0461 -0.9989 0.9989 0.0461 -247.319 805.798)" class="st12" width="12.547" height="19.55"/>
					<text transform="matrix(0.9989 0.0461 -0.0461 0.9989 292.7434 536.7338)" class="st13 st14 st15">D</text>
					
						<ellipse transform="matrix(0.0461 -0.9989 0.9989 0.0461 -308.7435 789.7857)" class="st11" cx="259.168" cy="556.554" rx="12.939" ry="12.939"/>
					
						<rect x="253.349" y="547.75" transform="matrix(0.0461 -0.9989 0.9989 0.0461 -309.2789 791.168)" class="st12" width="12.547" height="19.55"/>
					<text transform="matrix(0.9989 0.0461 -0.0461 0.9989 255.2917 561.9149)" class="st13 st14 st15">S</text>
					
						<ellipse transform="matrix(0.0461 -0.9989 0.9989 0.0461 -195.9113 1196.1323)" class="st11" cx="528.351" cy="700.647" rx="12.939" ry="12.939"/>
					
						<rect x="522.532" y="691.843" transform="matrix(0.0461 -0.9989 0.9989 0.0461 -196.448 1197.5118)" class="st12" width="12.546" height="19.55"/>
					<text transform="matrix(0.9989 0.0461 -0.0461 0.9989 524.0548 705.9893)" class="st13 st14 st15">C</text>
					
						<ellipse transform="matrix(0.0461 -0.9989 0.9989 0.0461 129.0826 868.5875)" class="st11" cx="519.341" cy="366.705" rx="12.939" ry="12.938"/>
					
						<rect x="513.522" y="357.901" transform="matrix(0.0461 -0.9989 0.9989 0.0461 128.5472 869.9682)" class="st12" width="12.546" height="19.55"/>
					<text transform="matrix(0.9989 0.0461 -0.0461 0.9989 514.3206 372.0136)" class="st13 st14 st15">N</text>
					
						<ellipse transform="matrix(0.0461 -0.9989 0.9989 0.0461 -137.5291 909.7419)" class="st11" cx="407.584" cy="526.882" rx="12.939" ry="12.938"/>
					
						<rect x="400.897" y="518.947" transform="matrix(0.0461 -0.9989 0.9989 0.0461 -139.7623 911.0814)" class="st12" width="12.547" height="19.55"/>
					<text transform="matrix(0.9989 0.0461 -0.0461 0.9989 402.898 531.8111)" class="st13 st14 st16">K</text>
				</g>
			</g>
			<g>
				<g>
					<path class="st17" d="M516.992,607.777c0.227,9.587-16.948,35.426-16.948,35.426s-17.542-25.018-17.769-34.606
						c-0.227-9.587,7.361-17.542,16.948-17.769C508.812,590.602,516.765,598.19,516.992,607.777z"/>
				</g>
				<circle class="st13" cx="499.632" cy="607.222" r="10.065"/>
			</g>
			<line class="st18" x1="234.357" y1="1040.825" x2="234.357" y2="860.359"/>
		</g>
	</g>
	<path class="st19" d="M841.144,278.694H158.856c-3.596,0-6.511,2.915-6.511,6.511v28.868h695.31v-28.868
		C847.655,281.609,844.74,278.694,841.144,278.694z"/>
	<rect x="152.345" y="314.073" class="st20" width="695.31" height="52.635"/>
	<path class="st19" d="M199.465,347.256c0.528-0.516,5.692-5.937,5.692-5.937c0.281-0.275,0.423-0.636,0.423-0.996
		c0-0.361-0.142-0.722-0.423-0.997c0,0-5.163-5.421-5.692-5.936c-0.528-0.516-1.479-0.551-2.043,0
		c-0.563,0.549-0.608,1.317,0.001,1.991l4.737,4.941l-4.737,4.94c-0.609,0.675-0.564,1.443-0.001,1.993
		C197.986,347.806,198.937,347.771,199.465,347.256z"/>
	<path class="st19" d="M176.618,333.39c-0.528,0.516-5.691,5.937-5.691,5.937c-0.282,0.275-0.423,0.636-0.423,0.997
		c0,0.36,0.142,0.72,0.423,0.996c0,0,5.163,5.421,5.691,5.937c0.528,0.514,1.479,0.549,2.043,0c0.563-0.549,0.608-1.317-0.001-1.993
		l-4.737-4.94l4.737-4.941c0.609-0.674,0.564-1.442,0.001-1.993C178.098,332.84,177.146,332.875,176.618,333.39z"/>
	<path class="st21" d="M599.647,360.188"/>
	<path class="st21" d="M562.669,425.978"/>
	<path class="st22" d="M332.39,314.176c9.593,0.004,9.195-24.673,17.192-24.673l91.461,0.008
		c9.594-0.005,9.195,24.673,17.192,24.673L332.39,314.176z"/>
	<path class="st20" d="M223.662,314.339c9.594,0.004,9.195-24.673,17.192-24.673l91.461,0.008
		c9.594-0.005,9.195,24.673,17.192,24.673L223.662,314.339z"/>
	<path class="st19" d="M237.924,339.694h-2.665l-0.018-0.175c-0.397-3.755-3.547-6.587-7.326-6.587c-4.064,0-7.37,3.315-7.37,7.391
		c0,4.077,3.306,7.392,7.37,7.392c1.663,0,3.232-0.542,4.539-1.568l0.39-0.306l-1.805-1.93l-0.326,0.24
		c-0.818,0.601-1.785,0.921-2.798,0.921c-2.608,0-4.73-2.13-4.73-4.748c0-2.617,2.122-4.746,4.73-4.746
		c2.291,0,4.247,1.635,4.652,3.887l0.041,0.23h-2.948l4.132,4.607L237.924,339.694z"/>
	<path class="st21" d="M569.83,605.021"/>
	<circle class="st23" cx="172.061" cy="296.145" r="5.644"/>
	<circle class="st24" cx="191.17" cy="296.145" r="5.644"/>
	<circle class="st25" cx="210.368" cy="296.145" r="5.644"/>
	<g>
		<g>
			<path class="st19" d="M830.779,338.817H815.52c-0.702,0-1.272,0.674-1.272,1.506c0,0.832,0.57,1.506,1.272,1.506h15.259
				c0.702,0,1.272-0.674,1.272-1.506C832.051,339.491,831.481,338.817,830.779,338.817z M815.52,335.806h15.259
				c0.702,0,1.272-0.674,1.272-1.506c0-0.833-0.57-1.507-1.272-1.507H815.52c-0.702,0-1.272,0.674-1.272,1.507
				C814.248,335.132,814.818,335.806,815.52,335.806z M830.779,344.841H815.52c-0.702,0-1.272,0.673-1.272,1.506
				c0,0.832,0.57,1.507,1.272,1.507h15.259c0.702,0,1.272-0.675,1.272-1.507C832.051,345.513,831.481,344.841,830.779,344.841z"/>
		</g>
	</g>
	<g>
		<g>
			<path class="st26" d="M549.808,383.822"/>
		</g>
	</g>
	<g>
	</g>
	<circle class="st27" cx="249.438" cy="303.208" r="4.752"/>
	<circle class="st28" cx="356.817" cy="303.208" r="4.752"/>
	<path class="st13" d="M805.291,354.043H247.272c-0.989,0-1.798-0.809-1.798-1.798v-23.844c0-0.989,0.809-1.798,1.798-1.798h558.019
		c0.989,0,1.798,0.809,1.798,1.798v23.844C807.089,353.234,806.28,354.043,805.291,354.043z"/>
	<polygon class="st20" points="792.851,343.988 798.007,348.009 795.854,341.76 801.193,337.997 794.707,338.156 792.851,331.81 
		790.996,338.156 784.51,337.997 789.849,341.76 787.696,348.009 	"/>
	<text transform="matrix(1 0 0 1 276.6854 343.653)" class="st29 st30 st31">www.twcinnovations.com/sales</text>
	<text transform="matrix(1 0 0 1 258.75 306.1904)"><tspan x="0" y="0" class="st32 st30 st33">TWC Sales Suite</tspan><tspan x="47.509" y="0" class="st32 st30 st33 st34">	</tspan><tspan x="65.132" y="0" class="st32 st30 st33 st35">		</tspan><tspan x="108.552" y="0" class="st32 st30 st33">TWC Sri Lanka</tspan></text>
</g>
<g>
	<path class="st36" d="M261.798,347.397c0,0,2.395-11.403,5.74-14.569c0,0-3.331,0.126-6.975,1.06c0,0-0.944,8.993,0.526,13.321
		L261.798,347.397z"/>
	<path class="st36" d="M257.34,345.779c0,0,0.83-10.129,2.733-11.748l-3.563,1.297c0,0-1.436,5.526-1.167,9.371L257.34,345.779z"/>
	<g>
		<path class="st37" d="M252.717,337.185c0.875,2.54,1.75,5.079,2.625,7.618c0.677,0.375,1.365,0.724,2.06,1.042
			c-0.461-2.01-1.458-6.607-1.775-10.129C254.645,336.163,253.673,336.654,252.717,337.185z"/>
		<path class="st37" d="M260.073,334.032c-1.195,0.361-2.385,0.796-3.563,1.297c0.953,3.455,2.637,8.847,4.579,11.88
			c0.236,0.067,0.472,0.13,0.709,0.188C260.982,344.681,259.216,338.05,260.073,334.032z"/>
		<path class="st37" d="M267.538,332.828c-2.299,0.021-4.644,0.397-6.975,1.06c0.786,2.429,3.397,10.144,6.076,14.066
			c0.331-0.009,0.661-0.029,0.989-0.059C267.016,344.585,265.914,337.084,267.538,332.828z"/>
	</g>
</g>
</svg>
