<?xml version="1.0" encoding="utf-8"?>
<!-- Generator: Adobe Illustrator 21.0.1, SVG Export Plug-In . SVG Version: 6.00 Build 0)  -->
<svg version="1.1" id="Layer_1" xmlns="http://www.w3.org/2000/svg" xmlns:xlink="http://www.w3.org/1999/xlink" x="0px" y="0px"
	 viewBox="0 0 1000 195" style="enable-background:new 0 0 1000 195;" xml:space="preserve">
<style type="text/css">
	.st0{fill:#DC0000;}
	.st1{fill:none;enable-background:new    ;}
</style>
<path id="Forma_1" class="st0" d="M67.7,38H38.2c-1.7,0-3.2,1.4-3.2,3.2v7.4h35.8v-7.4C70.8,39.4,69.4,38,67.7,38z M141.4,68.2
	c-1-0.6-2.2-0.6-3.2,0l-31.3,18.3V70.9c0-1.7-1.4-3.2-3.2-3.2c-0.6,0-1.1,0.1-1.6,0.4L70.8,86.5V54.9H35v88c0,1.7,1.4,3.2,3.2,3.2
	h101.6c1.7,0,3.2-1.4,3.2-3.2V70.9C143,69.8,142.4,68.7,141.4,68.2z M83.5,123.7c0,1.7-1.4,3.2-3.2,3.2H67.7c-1.7,0-3.2-1.4-3.2-3.2
	v-12.7c0-1.7,1.4-3.2,3.2-3.2c0,0,0,0,0,0h12.7c1.7,0,3.2,1.4,3.2,3.2c0,0,0,0,0,0C83.5,111.1,83.5,123.7,83.5,123.7z M119.6,123.7
	c0,1.7-1.4,3.2-3.2,3.2h-12.7c-1.7,0-3.2-1.4-3.2-3.2v-12.7c0-1.7,1.4-3.2,3.2-3.2c0,0,0,0,0,0h12.7c1.7,0,3.2,1.4,3.2,3.2
	L119.6,123.7L119.6,123.7z"/>
<path class="st1" d="z"/>
<g>
	<path d="M157.3,89.5v-5.7h41.2v5.7h-17.5v45.5h-6.3V89.5H157.3z"/>
	<path d="M208.9,83.8l14.1,42.3l14.2-42.3h4.1l14.3,42.3l14-42.3h7.2L258.9,135h-6.4l-13.3-38.3L226,135h-6.4l-17.8-51.2H208.9z"/>
	<path d="M307.6,135.8c-18.1,0-26.6-12.5-26.7-26.1c-0.1-13.5,8.7-26.7,26.7-26.7c6.8,0,13.5,2.6,18.7,7.7l-4.4,4.1
		c-3.9-3.9-9.1-5.7-14.3-5.7c-13.7,0-20.4,9.9-20.3,20.5c0.1,10.4,6.5,20.1,20.3,20.1c5.2,0,10.7-2,14.5-5.9l4.5,4.4
		C321.4,133.3,314.6,135.8,307.6,135.8z"/>
	<path class="st0" d="M332.8,134.9V83.8h9.6v51.2H332.8z"/>
	<path class="st0" d="M385,83.7h9.6v51.2h-6v0.1l-26.9-34.6v34.5h-9.6V83.8h7.8l25.1,31.7V83.7z"/>
	<path class="st0" d="M448.5,108.9c0.2,12.9-7.7,26-25.6,26c-6.3,0-13.8,0-20.1,0V83.8c6.3,0,13.8,0,20.1,0
		C440.5,83.8,448.3,96.3,448.5,108.9z M412.4,125.7H423c11.6,0,16.2-8.5,16-16.8c-0.2-8-4.9-15.9-16-15.9h-10.5V125.7z"/>
	<path class="st0" d="M499.8,83.9v29.3c0,15.1-9.3,22.9-22.1,22.9c-12.3,0-22.7-7.5-22.7-22.9V83.9h9.6v29.3
		c0,9.2,5.3,14.1,13.2,14.1s12.5-5.3,12.5-14.1V83.9H499.8z"/>
	<path class="st0" d="M540.8,96.1c-1.8-2.9-6.6-5.7-12.1-5.7c-7.2,0-10.6,3-10.6,6.8c0,4.5,5.3,5.7,11.4,6.4
		c10.7,1.3,20.6,4.1,20.6,16.3c0,11.4-10.1,16.3-21.5,16.3c-10.5,0-18.5-3.2-22.3-12.6l8-4.2c2.3,5.6,8.2,8.1,14.4,8.1
		c6.1,0,11.8-2.1,11.8-7.7c0-4.8-5-6.8-11.8-7.5c-10.5-1.2-20.1-4-20.1-15.5c0-10.5,10.4-14.8,19.8-14.9c8,0,16.2,2.3,20.1,10.2
		L540.8,96.1z"/>
	<path class="st0" d="M570.7,92.6h-16.2v-8.8c14.8,0,27.3,0,42.1,0v8.8h-16.2v42.4h-9.6V92.6z"/>
	<path class="st0" d="M647.8,134.9h-11.5l-14.9-17.1h-9.3v17.1h-9.6V83.7c8.1,0,16.2,0.1,24.3,0.1c12.1,0.1,18.4,8.1,18.4,17
		c0,7-3.2,14.1-12.9,16.1l15.5,17.5V134.9z M612.2,92.8v16.4h14.7c6.1,0,8.8-4.1,8.8-8.2c0-4.1-2.7-8.2-8.8-8.2H612.2z"/>
	<path class="st0" d="M651.9,134.9V83.8h9.6v51.2H651.9z"/>
	<path class="st0" d="M706.8,125.3h-26.8l-4.4,9.6h-10.5l23-51.2h10.5l23,51.2h-10.5L706.8,125.3z M693.5,94.5l-9.5,21.8h19
		L693.5,94.5z"/>
	<path class="st0" d="M736.4,83.8V126h26.3v8.9h-36V83.8H736.4z"/>
	<path d="M797.3,83.8l23,51.2h-6.9l-5-11.3h-29.2l-5,11.3h-6.9l23-51.2H797.3z M793.7,90.2l-12.1,27.6h24.3L793.7,90.2z"/>
	<path d="M834.6,134.9h-6.3V83.8h23.2c23.5,0,23.5,34.6,0,34.6h-17V134.9z M851.5,89.7h-17v22.8h17
		C866.6,112.5,866.6,89.7,851.5,89.7z"/>
	<path d="M884.6,134.9h-6.3V83.8h23.2c23.5,0,23.5,34.6,0,34.6h-17V134.9z M901.5,89.7h-17v22.8h17
		C916.6,112.5,916.6,89.7,901.5,89.7z"/>
	<path d="M946,88.4c-6.5,0-13.4,2.6-13.4,8.8c0,5.6,6.4,7.2,13.9,8.4c10.2,1.6,20.3,3.7,20.3,15.2c-0.1,11.5-11,15.2-20.8,15.2
		c-9.1,0-17.7-3.3-21.6-11.8l5.3-3.1c3.3,6.1,10.2,9,16.4,9c6.2,0,14.5-2,14.5-9.5c0.1-6.4-7.1-8.2-14.8-9.4
		c-9.9-1.5-19.4-3.8-19.4-14.2c-0.1-10.7,10.7-14.3,19.6-14.3c7.6,0,14.8,1.5,19.4,9.3l-4.8,3C957.6,90.5,951.7,88.5,946,88.4z"/>
</g>
</svg>
