<?xml version="1.0" encoding="utf-8"?>
<!-- Generator: Adobe Illustrator 21.0.1, SVG Export Plug-In . SVG Version: 6.00 Build 0)  -->
<svg version="1.1" id="Layer_1" xmlns="http://www.w3.org/2000/svg" xmlns:xlink="http://www.w3.org/1999/xlink" x="0px" y="0px"
	 viewBox="0 0 761 195" style="enable-background:new 0 0 761 195;" xml:space="preserve">
<style type="text/css">
	.st0{fill:#DC0000;}
</style>
<g>
	<path d="M167.3,73.8v-5.7h41.2v5.7h-17.5v45.5h-6.3V73.8H167.3z"/>
	<path d="M218.9,68.1l14.1,42.3l14.2-42.3h4.1l14.3,42.3l14-42.3h7.2l-17.9,51.2h-6.4L249.2,81L236,119.3h-6.4l-17.8-51.2H218.9z"/>
	<path d="M317.6,120c-18.1,0-26.6-12.5-26.7-26.1c-0.1-13.5,8.7-26.7,26.7-26.7c6.8,0,13.5,2.6,18.7,7.7l-4.4,4.1
		c-3.9-3.9-9.1-5.7-14.3-5.7c-13.7,0-20.4,9.9-20.3,20.5c0.1,10.4,6.5,20.1,20.3,20.1c5.2,0,10.7-2,14.5-5.9l4.5,4.4
		C331.4,117.5,324.6,120,317.6,120z"/>
	<path class="st0" d="M377.6,119.3V98.6h-25.1v20.7h-9.6V68.1h9.6v21.6h25.1V68.1h9.6v51.2H377.6z"/>
	<path class="st0" d="M434.4,119.2h-38.3c0-17,0-34.1,0-51.2h38.3v9.4h-28.7v11.8h27.7v9h-27.7v11.5h28.7V119.2z"/>
	<path class="st0" d="M451.5,68.1v42.2h26.3v8.9h-36V68.1H451.5z"/>
	<path class="st0" d="M508.7,104.2h-14.5v15.1h-9.6V68.1c8,0,16.1-0.1,24.1-0.1C533.7,68,533.8,104.2,508.7,104.2z M494.2,95.3h14.5
		c12.4,0,12.3-18.1,0-18.1h-14.5V95.3z"/>
	<path d="M537.2,68h18.6c17.4,0,25.7,12.4,25.7,25.1c0,13.1-7.8,26.2-25.7,26.2h-18.6V68L537.2,68z M575.2,93
		c0-9.5-6.3-18.9-19.4-18.9h-12.3v38.7h12.3C569.4,112.9,575.2,102.8,575.2,93z"/>
	<path d="M592,68.1h36v5.8h-29.7v16h28.4v5.9h-28.4v17.3h30.8v6.1H592V68.1z"/>
	<path d="M656.8,72.7c-6.5,0-13.4,2.6-13.4,8.8c0,5.6,6.4,7.2,13.9,8.4c10.2,1.6,20.3,3.7,20.3,15.2c-0.1,11.5-11,15.2-20.8,15.2
		c-9.1,0-17.7-3.3-21.6-11.8l5.3-3.1c3.3,6.1,10.2,9,16.4,9c6.2,0,14.5-2,14.5-9.5c0.1-6.4-7.1-8.2-14.8-9.4
		c-9.9-1.5-19.4-3.8-19.4-14.2C636.9,70.6,647.8,67,656.6,67c7.6,0,14.8,1.5,19.4,9.3l-4.8,3C668.4,74.8,662.5,72.7,656.8,72.7z"/>
	<path d="M687.6,68.1h6.3v22.6l22.7-22.6h8v0.4l-24.6,24.3l26.8,26.1v0.4h-7.9l-24.9-24v24h-6.3V68.1z"/>
</g>
<g>
	<g>
		<g>
			<g>
				<path class="st0" d="M90,35.8c-29.2,0-53,23.2-53,52c0,16.5,8,32,21.4,41.8v24.8c0,1.9,1.1,3.6,2.9,4.4c1.7,0.8,3.8,0.4,5.2-0.9
					l19.8-18.2c1.2,0.1,2.5,0.1,3.7,0.1c29.2,0,53-23.2,53-52C143,59,119.2,35.8,90,35.8z M90,130.2c-1.6,0-3.3-0.1-4.9-0.3
					c-1.4-0.2-2.8,0.3-3.8,1.2L68,143.4v-16.3c0-1.6-0.8-3.1-2.2-4c-12-7.9-19.2-21.1-19.2-35.2c0-23.4,19.5-42.4,43.4-42.4
					s43.4,19,43.4,42.4C133.4,111.2,113.9,130.2,90,130.2z"/>
			</g>
		</g>
		<g>
			<g>
				<path class="st0" d="M92.4,59.6H75.5c-2.7,0-4.8,2.2-4.8,4.8c0,2.7,2.2,4.8,4.8,4.8h16.9c4,0,7.2,3.2,7.2,7.2
					c0,4-3.2,7.2-7.2,7.2h-4.8c-2.7,0-4.8,2.2-4.8,4.8v6.9c0,2.7,2.2,4.8,4.8,4.8s4.8-2.2,4.8-4.8v-2.1c9.3,0,16.9-7.6,16.9-16.9
					C109.3,67.2,101.7,59.6,92.4,59.6z"/>
			</g>
		</g>
		<g>
			<g>
				<circle class="st0" cx="87.6" cy="112.7" r="6.5"/>
			</g>
		</g>
	</g>
</g>
</svg>
