<?xml version="1.0" encoding="utf-8"?>
<!-- Generator: Adobe Illustrator 21.0.1, SVG Export Plug-In . SVG Version: 6.00 Build 0)  -->
<svg version="1.1" id="Layer_1" xmlns="http://www.w3.org/2000/svg" xmlns:xlink="http://www.w3.org/1999/xlink" x="0px" y="0px"
	 viewBox="0 0 1000 195" style="enable-background:new 0 0 1000 195;" xml:space="preserve">
<style type="text/css">
	.st0{fill:#DC0000;}
	.st1{fill:#FFFFFF;}
</style>
<g id="TWCWebSolutions">
</g>
<path id="Forma_1" class="st0" d="M150.9,135.9l-22.1-22.1l15.8-9.1c1.8-1,2.4-3.3,1.4-5.1c-0.4-0.7-1.1-1.3-1.8-1.6L73.8,70
	c-1.9-0.8-4.1,0.2-4.8,2.1c-0.3,0.9-0.3,1.9,0,2.7l28,70.3c0.8,1.9,2.9,2.8,4.8,2.1c0.8-0.3,1.4-0.9,1.8-1.6l9.1-15.8l22.1,22.1
	c1.4,1.5,3.8,1.5,5.2,0l0,0l10.8-10.8C152.4,139.7,152.4,137.3,150.9,135.9L150.9,135.9z M57.3,53c-1.4-1.5-3.8-1.5-5.3,0
	s-1.5,3.8,0,5.3l0,0l8.2,8.2c1.5,1.4,3.8,1.4,5.2,0c1.4-1.4,1.4-3.8,0-5.2L57.3,53z M60.1,78.7c0-2.1-1.7-3.7-3.7-3.7H44.7
	c-2.1,0-3.7,1.7-3.7,3.7c0,2.1,1.7,3.7,3.7,3.7h11.7C58.4,82.4,60.1,80.8,60.1,78.7L60.1,78.7z M58.6,90.2l-8.2,8.2
	c-1.5,1.4-1.5,3.8,0,5.2c1.4,1.5,3.8,1.5,5.2,0c0,0,0,0,0,0l8.2-8.2c1.5-1.5,1.4-3.8,0-5.3C62.4,88.7,60,88.7,58.6,90.2L58.6,90.2z
	 M77.7,61.1c2.1,0,3.7-1.7,3.7-3.7V45.7c0-2.1-1.7-3.7-3.8-3.7c-2,0-3.6,1.6-3.7,3.7v11.7C74,59.4,75.7,61.1,77.7,61.1L77.7,61.1z
	 M91.8,65.9c1,0,1.9-0.4,2.6-1.1l8.2-8.2c1.4-1.4,1.4-3.8,0-5.2s-3.8-1.4-5.2,0l-8.2,8.2c-1.4,1.5-1.4,3.8,0,5.2
	C89.9,65.5,90.8,65.9,91.8,65.9L91.8,65.9z"/>
<g>
	<path class="st1" d="M176.2,89.5v-5.7h41.2v5.7H200v45.5h-6.3V89.5H176.2z"/>
	<path class="st1" d="M227.8,83.8l14.1,42.3l14.2-42.3h4.1l14.3,42.3l14-42.3h7.2L277.8,135h-6.4l-13.3-38.3L244.9,135h-6.4
		l-17.8-51.2H227.8z"/>
	<path class="st1" d="M326.5,135.8c-18.1,0-26.6-12.5-26.7-26.1c-0.1-13.5,8.7-26.7,26.7-26.7c6.8,0,13.5,2.6,18.7,7.7l-4.4,4.1
		c-3.9-3.9-9.1-5.7-14.3-5.7c-13.7,0-20.4,9.9-20.3,20.5c0.1,10.4,6.5,20.1,20.3,20.1c5.2,0,10.7-2,14.5-5.9l4.5,4.4
		C340.3,133.3,333.5,135.8,326.5,135.8z"/>
	<path class="st0" d="M406.9,134.9h-8.2l-6.4-16.1l-5.4-16.2l-5.3,16.3l-6.2,15.9h-8.2l-18.8-51.2h10.8l12.1,36.9l12.4-36.9h6.3
		l12.8,36.9l11.7-36.9h10.8L406.9,134.9z"/>
	<path class="st0" d="M469.4,134.9h-38.3c0-17,0-34.1,0-51.2h38.3v9.4h-28.7v11.8h27.7v9h-27.7v11.5h28.7V134.9z"/>
	<path class="st0" d="M518.4,98.6c0,3.9-1.9,7.7-6.7,9.9c6,1.8,8.2,8.2,8.2,11.4c0,11.4-8.6,15.1-19.1,15.1c-8.1,0-16.2,0-24.3,0
		V83.8c8,0,16.2,0,24.3,0C510.9,83.8,518.4,88.3,518.4,98.6z M486,104.3h14.8c6.1,0,8-2.6,8-5.5c0-2.3-1.9-6.3-8-6.3H486V104.3z
		 M486,126h14.8c3.9,0,9.6-1.3,9.6-6.1c0-4.6-5.6-7-9.6-7H486V126z"/>
	<path class="st1" d="M547.7,88.4c-6.5,0-13.4,2.6-13.4,8.8c0,5.6,6.4,7.2,13.9,8.4c10.2,1.6,20.3,3.7,20.3,15.2
		c-0.1,11.5-11,15.2-20.8,15.2c-9.1,0-17.7-3.3-21.6-11.8l5.3-3.1c3.3,6.1,10.2,9,16.4,9c6.2,0,14.5-2,14.5-9.5
		c0.1-6.4-7.1-8.2-14.8-9.4c-9.9-1.5-19.4-3.8-19.4-14.2c-0.1-10.7,10.7-14.3,19.6-14.3c7.6,0,14.8,1.5,19.4,9.3l-4.8,3
		C559.3,90.5,553.4,88.5,547.7,88.4z"/>
	<path class="st1" d="M627.3,109.5c-0.1,13.4-8.4,26.5-25.9,26.5c-17.5,0-26-13-26-26.5c0-14.8,9.9-26.6,26.1-26.6
		C618.7,83,627.3,96,627.3,109.5z M601.4,88.8c-13,0-19.7,9.6-19.7,20.8c0,10.4,6.3,20.5,19.7,20.5c13.4,0,19.5-10.4,19.5-20.5
		C621,99.1,614.8,88.9,601.4,88.8z"/>
	<path class="st1" d="M644,129h27.8v5.9h-34.2V83.8h6.4V129z"/>
	<path class="st1" d="M719.6,83.9v30.7c0,14.2-9.6,21.3-20.8,21.3c-10.9,0-21-7-21-21.3V83.9h6.3v30.7c0,10.2,6.8,15.5,14.7,15.5
		s14.5-5.6,14.5-15.6V83.8L719.6,83.9L719.6,83.9z"/>
	<path class="st1" d="M727,89.5v-5.7h41.2v5.7h-17.5v45.5h-6.3V89.5H727z"/>
	<path class="st1" d="M776.3,83.8h6.4v51.2h-6.4V83.8z"/>
	<path class="st1" d="M845,109.5c-0.1,13.4-8.4,26.5-25.9,26.5c-17.5,0-26-13-26-26.5c0-14.8,9.9-26.6,26.1-26.6
		C836.4,83,845,96,845,109.5z M819.1,88.8c-13,0-19.7,9.6-19.7,20.8c0,10.4,6.3,20.5,19.7,20.5c13.4,0,19.5-10.4,19.5-20.5
		C838.7,99.1,832.5,88.9,819.1,88.8z"/>
	<path class="st1" d="M859.8,83.8l31.4,39.2V83.8h6.3v51.2h-4.4l-31.4-39v39h-6.3V83.8H859.8z"/>
	<path class="st1" d="M928.7,88.4c-6.5,0-13.4,2.6-13.4,8.8c0,5.6,6.4,7.2,13.9,8.4c10.2,1.6,20.3,3.7,20.3,15.2
		c-0.1,11.5-11,15.2-20.8,15.2c-9.1,0-17.7-3.3-21.6-11.8l5.3-3.1c3.3,6.1,10.2,9,16.4,9c6.2,0,14.5-2,14.5-9.5
		c0.1-6.4-7.1-8.2-14.8-9.4c-9.9-1.5-19.4-3.8-19.4-14.2c-0.1-10.7,10.7-14.3,19.6-14.3c7.6,0,14.8,1.5,19.4,9.3l-4.8,3
		C940.3,90.5,934.4,88.5,928.7,88.4z"/>
</g>
</svg>
